<svg width="24" height="24" viewBox="0 0 24 24" fill="none" xmlns="http://www.w3.org/2000/svg">
<path d="M21.9514 4.69098L22.0239 4.81238C24.8538 10.574 21.4994 15.983 12.3629 20.9085C12.251 20.9686 12.1265 21 12.0001 21C11.8736 21 11.7491 20.9686 11.6373 20.9085C2.49969 15.983 -0.853694 10.574 1.97621 4.81238L2.05188 4.68676C4.56769 1.31404 8.74516 1.13564 12.0063 4.07872C15.3451 1.1272 19.4542 1.30771 21.9514 4.69098ZM20.666 5.58509C18.626 2.8827 15.3234 2.9017 12.5495 5.72549C12.4767 5.79969 12.3901 5.85842 12.2948 5.89827C12.1995 5.93811 12.0974 5.95828 11.9944 5.95759C11.8914 5.9569 11.7896 5.93538 11.6948 5.89426C11.6 5.85315 11.5142 5.79327 11.4424 5.7181C8.76589 2.91331 5.39489 2.88903 3.33414 5.5872C1.0723 10.2879 3.83482 14.8218 12.0001 19.3103C20.1663 14.8207 22.9289 10.2868 20.666 5.58509Z" fill="#505050"/>
</svg>
