<svg width="24" height="24" viewBox="0 0 24 24" fill="none" xmlns="http://www.w3.org/2000/svg">
<path d="M6.36734 20.3594H3.47726C3.12877 20.3594 2.91852 20.1639 2.82424 20.0474C2.66146 19.8462 2.5984 19.5843 2.65134 19.3289C3.49905 15.2371 7.09252 12.2489 11.2409 12.1519C11.31 12.1545 11.3793 12.1562 11.449 12.1562C11.5193 12.1562 11.5891 12.1545 11.6589 12.1519C12.6733 12.1751 13.6641 12.3668 14.6073 12.7227C15.0293 12.882 15.5 12.6672 15.6584 12.2431C15.8169 11.819 15.6033 11.346 15.1812 11.1868C15.0462 11.1359 14.9102 11.0879 14.7732 11.0427C16.1243 10.0243 17 8.40205 17 6.57812C17 3.50236 14.5098 1 11.449 1C8.38812 1 5.89795 3.50236 5.89795 6.57812C5.89795 8.40369 6.77518 10.0272 8.12828 11.0455C6.88865 11.4555 5.72538 12.0933 4.70734 12.9347C2.84073 14.4776 1.54289 16.6297 1.05297 18.9945C0.899418 19.7355 1.08334 20.4966 1.55758 21.0825C2.02942 21.6656 2.72913 22 3.47726 22H6.36734C6.8182 22 7.18367 21.6327 7.18367 21.1797C7.18367 20.7266 6.8182 20.3594 6.36734 20.3594ZM7.53061 6.57812C7.53061 4.40696 9.28836 2.64062 11.449 2.64062C13.6096 2.64062 15.3673 4.40696 15.3673 6.57812C15.3673 8.68497 13.7121 10.4105 11.6398 10.5109C11.5762 10.5096 11.5126 10.5089 11.449 10.5088C11.3851 10.5088 11.3213 10.5097 11.2576 10.5109C9.18555 10.4102 7.53061 8.68477 7.53061 6.57812Z" fill="#505050"/>
<path d="M21.3725 15.2706C21.0217 14.5008 20.2313 14.002 19.3571 14H16.7954C15.8733 14 15.0688 14.5331 14.7451 15.3591C14.6917 15.4945 14.6414 15.6312 14.5944 15.7689H9.22773C9.11804 15.7689 9.00948 15.7904 8.90846 15.8323C8.80744 15.8743 8.71602 15.9356 8.63961 16.0128L7.23158 17.4354C6.92145 17.7488 6.92301 18.2476 7.23506 18.5591L8.66949 19.9907C8.74578 20.0668 8.83676 20.1273 8.93713 20.1686C9.0375 20.2099 9.14524 20.2311 9.25408 20.2311H11.918C12.3707 20.2311 12.7377 19.8712 12.7377 19.4271C12.7377 18.9831 12.3707 18.6231 11.918 18.6231H9.59777L8.96547 17.992L9.57436 17.3769H15.2092C15.3927 17.3769 15.5709 17.3165 15.7152 17.2054C15.8596 17.0943 15.9618 16.9389 16.0054 16.7641C16.0717 16.4985 16.1549 16.2431 16.2752 15.9361C16.3546 15.7336 16.5538 15.608 16.7974 15.608H19.3552C19.587 15.6086 19.7865 15.7308 19.8759 15.9269C20.0959 16.4098 20.3587 17.1574 20.3606 17.9766C20.3626 18.8019 20.1001 19.5666 19.8795 20.0628C19.7906 20.2629 19.5894 20.392 19.3648 20.392H16.7763C16.5496 20.3915 16.3372 20.2484 16.2478 20.0359C16.1519 19.8079 16.0689 19.5476 15.9938 19.24C15.8885 18.8082 15.446 18.5419 15.0059 18.6452C14.5656 18.7486 14.2942 19.1825 14.3995 19.6143C14.4947 20.0042 14.6035 20.3427 14.7324 20.649C15.0766 21.4677 15.8774 21.998 16.7745 22H19.3667C19.7947 22.0002 20.2134 21.8778 20.5714 21.6478C20.9295 21.4178 21.2113 21.0903 21.3823 20.7055C21.6656 20.0683 22.0026 19.0769 22 17.9728C21.9974 16.8717 21.6573 15.8956 21.3725 15.2706Z" fill="#505050"/>
<path d="M19.2031 19.25C19.7209 19.25 20.1406 18.8303 20.1406 18.3125C20.1406 17.7947 19.7209 17.375 19.2031 17.375C18.6854 17.375 18.2656 17.7947 18.2656 18.3125C18.2656 18.8303 18.6854 19.25 19.2031 19.25Z" fill="#505050"/>
</svg>
