<svg width="24" height="24" viewBox="0 0 24 24" fill="none" xmlns="http://www.w3.org/2000/svg">
<path d="M16.3642 22.5H7.63416C6.64691 22.5367 5.68506 22.1823 4.95762 21.5138C4.23017 20.8454 3.7959 19.9168 3.74916 18.93V14.25C3.74916 14.0511 3.82818 13.8603 3.96883 13.7197C4.10948 13.579 4.30025 13.5 4.49916 13.5C4.69807 13.5 4.88884 13.579 5.02949 13.7197C5.17014 13.8603 5.24916 14.0511 5.24916 14.25V18.93C5.29526 19.5191 5.57124 20.0664 6.01749 20.4537C6.46374 20.841 7.04445 21.0373 7.63416 21H16.3642C16.9539 21.0373 17.5346 20.841 17.9808 20.4537C18.4271 20.0664 18.7031 19.5191 18.7492 18.93V14.25C18.7492 14.0511 18.8282 13.8603 18.9688 13.7197C19.1095 13.579 19.3002 13.5 19.4992 13.5C19.6981 13.5 19.8888 13.579 20.0295 13.7197C20.1701 13.8603 20.2492 14.0511 20.2492 14.25V18.93C20.2024 19.9168 19.7682 20.8454 19.0407 21.5138C18.3133 22.1823 17.3514 22.5367 16.3642 22.5ZM22.2817 12.5325C22.352 12.4628 22.4078 12.3798 22.4458 12.2884C22.4839 12.1971 22.5035 12.099 22.5035 12C22.5035 11.901 22.4839 11.803 22.4458 11.7116C22.4078 11.6202 22.352 11.5372 22.2817 11.4675L12.5317 1.71752C12.4619 1.64722 12.379 1.59142 12.2876 1.55335C12.1962 1.51527 12.0982 1.49567 11.9992 1.49567C11.9002 1.49567 11.8021 1.51527 11.7107 1.55335C11.6193 1.59142 11.5364 1.64722 11.4667 1.71752L1.71666 11.4675C1.57543 11.6087 1.49609 11.8003 1.49609 12C1.49609 12.1997 1.57543 12.3913 1.71666 12.5325C1.85789 12.6737 2.04944 12.7531 2.24916 12.7531C2.44889 12.7531 2.64043 12.6737 2.78166 12.5325L11.9992 3.30752L21.2167 12.5325C21.2864 12.6028 21.3693 12.6586 21.4607 12.6967C21.5521 12.7348 21.6502 12.7544 21.7492 12.7544C21.8482 12.7544 21.9462 12.7348 22.0376 12.6967C22.129 12.6586 22.2119 12.6028 22.2817 12.5325Z" fill="#505050"/>
</svg>
