<svg width="24" height="24" viewBox="0 0 24 24" fill="none" xmlns="http://www.w3.org/2000/svg">
<path fill-rule="evenodd" clip-rule="evenodd" d="M20.7676 3.70929V22.2673C20.7675 22.4006 20.7297 22.5313 20.6581 22.6454C20.5865 22.7595 20.484 22.8527 20.3615 22.9149C20.239 22.9772 20.1011 23.0061 19.9628 22.9985C19.8245 22.9909 19.691 22.9471 19.5766 22.8719L17.0435 21.2085L14.6484 22.8622C14.3611 23.0614 13.9692 23.0428 13.7032 22.8182L11.8838 21.2877L10.0644 22.8182C9.79837 23.0428 9.40647 23.0614 9.11916 22.8622L6.72408 21.2085L4.19095 22.8719C4.07661 22.9471 3.94307 22.9909 3.80475 22.9985C3.66644 23.0061 3.5286 22.9771 3.40612 22.9149C3.2836 22.8527 3.18104 22.7595 3.10948 22.6454C3.03791 22.5313 3.00006 22.4006 3 22.2673V3.70929C3.00004 2.76576 3.79499 2 4.77679 2H18.9908C19.9726 2 20.7676 2.76576 20.7676 3.70929ZM19.2446 3.70929C19.2446 3.64454 19.2179 3.58244 19.1703 3.53665C19.1227 3.49086 19.0581 3.46513 18.9908 3.46511H4.77679C4.70948 3.46513 4.64493 3.49086 4.59734 3.53665C4.54974 3.58244 4.52299 3.64454 4.52297 3.70929V20.8803L6.30582 19.7092C6.43477 19.6244 6.58777 19.5798 6.74399 19.5815C6.90022 19.5833 7.0521 19.6313 7.17897 19.719L9.51616 21.3335L11.3823 19.763C11.521 19.6458 11.6992 19.5813 11.8838 19.5813C12.0684 19.5813 12.2466 19.6458 12.3854 19.763L14.2515 21.3335L16.5887 19.719C16.7155 19.6313 16.8674 19.5833 17.0236 19.5815C17.1799 19.5798 17.3328 19.6244 17.4618 19.7092L19.2446 20.8803V3.70929Z" fill="#505050"/>
<path fill-rule="evenodd" clip-rule="evenodd" d="M7.82201 7.37209C7.40168 7.37209 7.06055 7.04391 7.06055 6.63954C7.06055 6.23517 7.40168 5.90698 7.82201 5.90698H15.9443C16.3646 5.90698 16.7058 6.23517 16.7058 6.63954C16.7058 7.04391 16.3646 7.37209 15.9443 7.37209H7.82201ZM7.82201 11.279C7.40168 11.279 7.06055 10.9509 7.06055 10.5465C7.06055 10.1421 7.40168 9.81393 7.82201 9.81393H15.9443C16.3646 9.81393 16.7058 10.1421 16.7058 10.5465C16.7058 10.9509 16.3646 11.279 15.9443 11.279H7.82201ZM7.82201 15.186C7.40168 15.186 7.06055 14.8578 7.06055 14.4534C7.06055 14.0491 7.40168 13.7209 7.82201 13.7209H11.8832C12.3035 13.7209 12.6446 14.0491 12.6446 14.4534C12.6446 14.8578 12.3035 15.186 11.8832 15.186H7.82201Z" fill="#505050"/>
</svg>
