<svg width="24" height="24" viewBox="0 0 24 24" fill="none" xmlns="http://www.w3.org/2000/svg">
<path d="M6.229 4.5H21.75C21.8609 4.50007 21.9704 4.52473 22.0707 4.57223C22.1709 4.61972 22.2594 4.68885 22.3297 4.77465C22.4 4.86044 22.4504 4.96076 22.4772 5.06838C22.5041 5.176 22.5067 5.28823 22.485 5.397L20.985 12.897C20.951 13.067 20.8592 13.2199 20.7252 13.3298C20.5913 13.4398 20.4233 13.4999 20.25 13.5H7.129L7.429 16.5H18.75C18.9489 16.5 19.1397 16.579 19.2803 16.7197C19.421 16.8603 19.5 17.0511 19.5 17.25C19.5 17.4489 19.421 17.6397 19.2803 17.7803C19.1397 17.921 18.9489 18 18.75 18H6.75C6.56411 17.9999 6.38487 17.9309 6.24704 17.8061C6.1092 17.6814 6.02259 17.51 6.004 17.325L4.57 3H2.25C2.05109 3 1.86032 2.92098 1.71967 2.78033C1.57902 2.63968 1.5 2.44891 1.5 2.25C1.5 2.05109 1.57902 1.86032 1.71967 1.71967C1.86032 1.57902 2.05109 1.5 2.25 1.5H5.25C5.43589 1.50006 5.61513 1.56915 5.75296 1.69387C5.8908 1.81858 5.97741 1.99005 5.996 2.175L6.229 4.5ZM6.379 6L6.979 12H19.635L20.835 6H6.379ZM7.5 22.5C7.10218 22.5 6.72064 22.342 6.43934 22.0607C6.15804 21.7794 6 21.3978 6 21C6 20.6022 6.15804 20.2206 6.43934 19.9393C6.72064 19.658 7.10218 19.5 7.5 19.5C7.89782 19.5 8.27936 19.658 8.56066 19.9393C8.84196 20.2206 9 20.6022 9 21C9 21.3978 8.84196 21.7794 8.56066 22.0607C8.27936 22.342 7.89782 22.5 7.5 22.5ZM18 22.5C17.6022 22.5 17.2206 22.342 16.9393 22.0607C16.658 21.7794 16.5 21.3978 16.5 21C16.5 20.6022 16.658 20.2206 16.9393 19.9393C17.2206 19.658 17.6022 19.5 18 19.5C18.3978 19.5 18.7794 19.658 19.0607 19.9393C19.342 20.2206 19.5 20.6022 19.5 21C19.5 21.3978 19.342 21.7794 19.0607 22.0607C18.7794 22.342 18.3978 22.5 18 22.5Z" fill="#505050"/>
</svg>
