<svg width="346" height="264" viewBox="0 0 346 264" fill="none" xmlns="http://www.w3.org/2000/svg">
<g id="remove_illustration">
<g id="freepik--background-complete--inject-34">
<rect id="Rectangle" y="232" width="346" height="0.177153" fill="#EBEBEB"/>
<rect id="Rectangle_2" x="36.3047" y="238.746" width="22.919" height="0.177153" fill="#EBEBEB"/>
<rect id="Rectangle_3" x="118.43" y="236.826" width="29.4308" height="0.177153" fill="#EBEBEB"/>
<rect id="Rectangle_4" x="64.6797" y="241.232" width="13.2795" height="0.177153" fill="#EBEBEB"/>
<rect id="Rectangle_5" x="300.789" y="244.137" width="10.5392" height="0.177153" fill="#EBEBEB"/>
<rect id="Rectangle_6" x="270.898" y="244.137" width="23.7287" height="0.177153" fill="#EBEBEB"/>
<rect id="Rectangle_7" x="213.137" y="239.035" width="16.4904" height="0.177153" fill="#EBEBEB"/>
<path id="Shape" fill-rule="evenodd" clip-rule="evenodd" d="M30.3888 200.395H164C166.182 200.395 167.952 198.583 167.952 196.349V4.04616C167.952 1.81153 166.182 3.03732e-09 164 3.03732e-09H30.3888C28.22 -8.5141e-05 26.4565 1.78995 26.4375 4.01073V196.349C26.4375 198.583 28.2066 200.395 30.3888 200.395ZM26.6088 4.01023C26.6127 1.87506 28.302 0.145122 30.3872 0.141222H163.999C166.084 0.145122 167.773 1.87506 167.777 4.01023V196.348C167.773 198.483 166.084 200.213 163.999 200.217H30.3872C28.302 200.213 26.6127 198.483 26.6088 196.348V4.01023Z" fill="#EBEBEB"/>
<path id="Shape_2" fill-rule="evenodd" clip-rule="evenodd" d="M180.065 200.395H313.69C315.867 200.387 317.627 198.578 317.627 196.349V4.01073C317.608 1.79546 315.853 0.00767475 313.69 0H180.065C177.897 0.00375782 176.136 1.79157 176.113 4.01073V196.349C176.117 198.582 177.884 200.391 180.065 200.395ZM176.285 4.01023C176.288 1.87506 177.978 0.145122 180.063 0.141222H313.688C315.773 0.145122 317.463 1.87506 317.466 4.01023V196.348C317.463 198.483 315.773 200.213 313.688 200.217H180.063C177.978 200.213 176.288 198.483 176.285 196.348V4.01023Z" fill="#EBEBEB"/>
<rect id="Rectangle_8" x="287.434" y="100.176" width="74.646" height="76.6433" transform="rotate(180 287.434 100.176)" fill="#FDF1F7"/>
<rect id="Rectangle_9" x="211.5" y="23.5391" width="1.28712" height="76.6433" fill="#E0E0E0"/>
<rect id="Rectangle_10" x="280.848" y="95.3359" width="61.4634" height="66.9637" transform="rotate(180 280.848 95.3359)" fill="#FAFAFA"/>
<path id="Path" d="M243.585 80.7824H263.051C267.272 80.7824 270.096 77.2818 269.355 72.9877L265.57 50.7869C264.704 46.364 260.977 43.1347 256.574 42.9922H237.156C232.935 42.9922 230.112 46.4927 230.852 50.7869L234.638 72.9877C235.497 77.3944 239.2 80.6199 243.585 80.7824Z" fill="#FDF1F7"/>
<rect id="Rectangle_11" x="56.0312" y="123.453" width="16.608" height="104.91" fill="#FDF1F7"/>
<rect id="Rectangle_12" x="57.7266" y="228.371" width="87.7871" height="3.621" fill="#FDF1F7"/>
<rect id="Rectangle_13" x="146.973" y="228.371" width="74.3346" height="104.91" transform="rotate(180 146.973 228.371)" fill="#F5F5F5"/>
<rect id="Rectangle_14" x="143.984" y="196.816" width="68.3558" height="18.7357" transform="rotate(180 143.984 196.816)" fill="#FDF1F7"/>
<rect id="Rectangle_15" x="143.984" y="221.334" width="68.3558" height="18.7357" transform="rotate(180 143.984 221.334)" fill="#FDF1F7"/>
<rect id="Rectangle_16" x="82.9023" y="176.932" width="53.8099" height="2.57226" rx="1.18" fill="#F5F5F5"/>
<rect id="Rectangle_17" x="82.9023" y="201.457" width="53.8099" height="2.57226" rx="1.18" fill="#F5F5F5"/>
<rect id="Rectangle_18" x="143.984" y="147.971" width="68.3558" height="18.7357" transform="rotate(180 143.984 147.971)" fill="#FDF1F7"/>
<rect id="Rectangle_19" x="143.984" y="172.307" width="68.3558" height="18.7357" transform="rotate(180 143.984 172.307)" fill="#FDF1F7"/>
<rect id="Rectangle_20" x="82.9023" y="128.096" width="53.8099" height="2.57226" rx="1.18" fill="#F5F5F5"/>
<rect id="Rectangle_21" x="82.9023" y="152.414" width="53.8099" height="2.57226" rx="1.18" fill="#F5F5F5"/>
<rect id="Rectangle_22" x="51.0664" y="17.7578" width="93.2193" height="83.8003" fill="#E6E6E6"/>
<path id="Path_2" d="M154.276 14.498H45.0298C44.7845 14.498 44.5493 14.5983 44.3765 14.7766C44.2037 14.9549 44.1076 15.1964 44.1094 15.4476C44.1094 15.9681 44.5215 16.39 45.0298 16.39H154.276C154.785 16.3901 155.199 15.9692 155.203 15.4476C155.203 14.9232 154.788 14.498 154.276 14.498Z" fill="#E6E6E6"/>
<rect id="Rectangle_23" x="52.9102" y="17.7578" width="95.3299" height="83.8003" fill="#FDF1F7"/>
<path id="Path_3" d="M144.286 101.559H51.0664V104.244H147.012L144.286 101.559Z" fill="#E6E6E6"/>
<path id="Path_4" d="M154.827 101.559H59.5039L62.2235 104.244H157.553L154.827 101.559Z" fill="#FDF1F7"/>
<path id="Rectangle_24" d="M142.707 23.4258V95.8883H58.456V23.4258L142.707 23.4258Z" fill="#FAFAFA"/>
<path id="Path_5" d="M77.582 95.8883L110.078 23.4258H125.427L92.9237 95.8883H77.582Z" fill="white"/>
<path id="Path_6" d="M96.2148 95.8883L128.718 23.4258H134.697L102.201 95.8883H96.2148Z" fill="white"/>
<path id="Rectangle_25" d="M142.702 23.4258V95.8883H141.997V23.4258H142.702Z" fill="#E6E6E6"/>
<g id="Group" opacity="0.4">
<rect id="Rectangle_26" x="48.9883" y="12.8047" width="9.52884" height="69.1533" fill="#FDF1F7"/>
<rect id="Rectangle_27" x="54.8086" y="12.8047" width="7.42516" height="69.1533" fill="#E6E6E6"/>
<rect id="Rectangle_28" x="58.5156" y="12.8047" width="9.52884" height="69.1533" fill="#FDF1F7"/>
<rect id="Rectangle_29" x="64.3359" y="12.8047" width="7.42516" height="69.1533" fill="#E6E6E6"/>
<rect id="Rectangle_30" x="68.043" y="12.8047" width="9.52884" height="69.1533" fill="#FDF1F7"/>
</g>
<g id="Group_2" opacity="0.4">
<rect id="Rectangle_31" x="133.664" y="12.8047" width="5.49448" height="69.1533" fill="#FDF1F7"/>
<rect id="Rectangle_32" x="137.012" y="12.8047" width="4.27656" height="69.1533" fill="#E6E6E6"/>
<rect id="Rectangle_33" x="139.152" y="12.8047" width="5.49448" height="69.1533" fill="#FDF1F7"/>
<rect id="Rectangle_34" x="142.508" y="12.8047" width="4.27656" height="69.1533" fill="#E6E6E6"/>
<rect id="Rectangle_35" x="144.645" y="12.8047" width="5.49448" height="69.1533" fill="#FDF1F7"/>
</g>
<path id="Path_7" d="M246.939 151.791C246.712 154.653 248.792 157.163 251.588 157.397C254.383 157.631 256.834 155.501 257.064 152.639C257.293 149.777 255.214 147.265 252.42 147.029C249.623 146.796 247.17 148.927 246.939 151.791Z" fill="#E0E0E0"/>
<ellipse id="Oval" cx="5.08879" cy="5.2057" rx="5.08879" ry="5.2057" transform="matrix(0.988982 -0.148034 0.143135 0.989703 254.543 150.523)" fill="#E0E0E0"/>
<path id="Path_8" d="M264.15 155.575C263.922 158.437 266.003 160.947 268.798 161.181C271.594 161.415 274.045 159.285 274.275 156.423C274.504 153.561 272.425 151.05 269.63 150.813C268.286 150.698 266.953 151.135 265.924 152.028C264.896 152.922 264.257 154.198 264.15 155.575Z" fill="#E0E0E0"/>
<path id="Path_9" d="M237.494 154.519C237.266 157.382 239.347 159.891 242.142 160.125C244.937 160.359 247.389 158.229 247.618 155.367C247.848 152.505 245.769 149.994 242.974 149.758C240.177 149.525 237.725 151.656 237.494 154.519Z" fill="#E0E0E0"/>
<ellipse id="Oval_2" cx="5.08879" cy="5.2057" rx="5.08879" ry="5.2057" transform="matrix(0.988982 -0.148034 0.143135 0.989703 270.781 150.52)" fill="#E0E0E0"/>
<ellipse id="Oval_3" cx="5.1381" cy="5.15704" rx="5.1381" ry="5.15704" transform="matrix(0.754408 -0.656406 0.6435 0.765446 228.512 149.967)" fill="#E0E0E0"/>
<path id="Path_10" d="M223.462 153.338C223.235 156.2 225.316 158.709 228.111 158.943C230.906 159.177 233.357 157.048 233.587 154.185C233.817 151.323 231.738 148.812 228.943 148.576C226.146 148.343 223.694 150.474 223.462 153.338Z" fill="#E0E0E0"/>
<path id="Path_11" d="M217.656 154.738C217.656 154.738 218.528 176.046 251.966 176.046C285.403 176.046 286.275 154.738 286.275 154.738H217.656Z" fill="#FDF1F7"/>
<rect id="Rectangle_36" x="298.992" y="176.047" width="6.35948" height="55.9448" fill="#E6E6E6"/>
<rect id="Rectangle_37" x="303.305" y="176.047" width="3.74372" height="55.9448" fill="#FDF1F7"/>
<rect id="Rectangle_38" x="271.934" y="176.047" width="6.35948" height="55.9448" fill="#E6E6E6"/>
<rect id="Rectangle_39" x="275.742" y="176.047" width="3.74372" height="55.9448" fill="#FDF1F7"/>
<rect id="Rectangle_40" x="308.211" y="182.836" width="90.2783" height="6.7814" transform="rotate(180 308.211 182.836)" fill="#FDF1F7"/>
<rect id="Rectangle_41" x="183.98" y="176.047" width="6.35948" height="55.9448" fill="#E6E6E6"/>
<rect id="Rectangle_42" x="187.789" y="176.047" width="3.74372" height="55.9448" fill="#FDF1F7"/>
<rect id="Rectangle_43" x="215.211" y="182.836" width="32.3648" height="6.7814" transform="rotate(180 215.211 182.836)" fill="#E6E6E6"/>
<rect id="Rectangle_44" x="211.031" y="176.047" width="6.35948" height="55.9448" fill="#E6E6E6"/>
<rect id="Rectangle_45" x="215.352" y="176.047" width="3.74372" height="55.9448" fill="#FDF1F7"/>
</g>
<g id="freepik--Shadow--inject-34">
<ellipse id="freepik--path--inject-34" cx="173" cy="255.979" rx="134.172" ry="8.02147" fill="#F5F5F5"/>
</g>
<g id="freepik--Trash--inject-34">
<path id="Path_12" d="M245.989 248.942C245.991 251.867 243.927 254.363 241.111 254.845C224.321 257.746 207.176 257.746 190.387 254.845C187.582 254.351 185.536 251.856 185.543 248.942V191.545H246.017L245.989 248.942Z" fill="#E3AADD"/>
<path id="Path_13" opacity="0.3" d="M185.508 192.578V200.635C189.148 202.017 201.099 203.03 215.748 203.03C230.398 203.03 242.369 202.017 245.989 200.635V192.578H185.508Z" fill="black"/>
<path id="Path_14" d="M247.126 198.723C247.126 200.544 233.396 202.018 215.75 202.018C198.104 202.018 184.375 200.544 184.375 198.723L183.801 191.566H247.735L247.126 198.723Z" fill="#E3AADD"/>
<ellipse id="Oval_4" cx="215.75" cy="191.565" rx="31.9496" ry="3.28795" fill="#E3AADD"/>
<ellipse id="Oval_5" opacity="0.3" cx="215.75" cy="191.565" rx="31.9496" ry="3.28795" fill="black"/>
<path id="Path_15" opacity="0.2" d="M193.619 244.904C192.325 244.9 191.277 243.827 191.273 242.501V209.594C191.277 208.269 192.325 207.195 193.619 207.191C194.912 207.199 195.958 208.27 195.965 209.594V242.501C195.958 243.825 194.912 244.896 193.619 244.904Z" fill="black"/>
<path id="Path_16" opacity="0.2" d="M237.889 244.904C236.595 244.9 235.547 243.827 235.543 242.501V209.594C235.547 208.269 236.595 207.195 237.889 207.191C239.181 207.199 240.227 208.27 240.235 209.594V242.501C240.227 243.825 239.181 244.896 237.889 244.904Z" fill="black"/>
<path id="Path_17" opacity="0.2" d="M223.127 244.904C221.835 244.896 220.789 243.825 220.781 242.501V209.594C220.789 208.27 221.835 207.199 223.127 207.191C224.421 207.195 225.469 208.269 225.473 209.594V242.501C225.469 243.827 224.421 244.9 223.127 244.904Z" fill="black"/>
<path id="Path_18" opacity="0.2" d="M208.377 244.904C207.085 244.896 206.039 243.825 206.031 242.501V209.594C206.039 208.27 207.085 207.199 208.377 207.191C209.671 207.195 210.719 208.269 210.723 209.594V242.501C210.719 243.827 209.671 244.9 208.377 244.904Z" fill="black"/>
</g>
<g id="freepik--Character--inject-34">
<path id="Path_19" d="M133.469 59.6376C133.469 60.9674 132.686 62.1663 131.487 62.6752C130.287 63.1841 128.906 62.9028 127.987 61.9625C127.069 61.0221 126.794 59.6079 127.291 58.3793C127.788 57.1507 128.959 56.3496 130.258 56.3496C132.031 56.3496 133.469 57.8217 133.469 59.6376Z" fill="#262736"/>
<path id="Path_20" d="M127.681 60.1121C127.617 60.1139 127.558 60.0781 127.528 60.02C126.951 58.9339 126.984 57.615 127.613 56.56C128.243 55.505 129.375 54.8743 130.582 54.9054C131.789 54.9365 132.889 55.6247 133.466 56.7108C133.508 56.7972 133.478 56.9024 133.397 56.9517C133.356 56.9744 133.309 56.9796 133.265 56.9663C133.22 56.953 133.183 56.9223 133.161 56.8808C132.361 55.3741 130.519 54.8173 129.047 55.6372C127.576 56.4571 127.032 58.3432 127.833 59.8499C127.855 59.8912 127.86 59.9399 127.847 59.9851C127.834 60.0303 127.804 60.0684 127.764 60.0908C127.738 60.1044 127.71 60.1117 127.681 60.1121Z" fill="#262736"/>
<path id="Path_21" d="M124.558 74.6586C123.282 74.6533 122.118 73.9139 121.546 72.7463C120.975 71.5786 121.093 70.1811 121.852 69.1314C122.388 68.3964 123.187 67.9096 124.073 67.7779C124.118 67.7698 124.165 67.7812 124.202 67.8094C124.238 67.8376 124.262 67.8801 124.267 67.9268C124.279 68.0224 124.215 68.1106 124.122 68.1252C122.465 68.3737 121.319 69.9504 121.561 71.647C121.804 73.3435 123.344 74.5173 125.001 74.2688C125.096 74.2532 125.186 74.3198 125.201 74.4176C125.217 74.5155 125.151 74.6075 125.056 74.6231C124.891 74.6455 124.724 74.6573 124.558 74.6586Z" fill="#262736"/>
<path id="Path_22" d="M142.005 80.0164C141.356 80.0154 140.721 79.8209 140.178 79.4566C140.098 79.4023 140.074 79.2931 140.123 79.2086C140.178 79.1289 140.284 79.1072 140.365 79.159C141.77 80.0924 143.647 79.6831 144.559 78.2449C145.47 76.8066 145.071 74.8841 143.666 73.9507C143.586 73.8964 143.562 73.7872 143.611 73.7027C143.666 73.623 143.772 73.6013 143.853 73.6531C145.415 74.6944 145.86 76.8329 144.849 78.4362C144.365 79.2102 143.597 79.7518 142.718 79.9384C142.484 79.9889 142.245 80.015 142.005 80.0164Z" fill="#262736"/>
<ellipse id="Oval_6" cx="128.461" cy="65.2403" rx="4.53952" ry="4.64848" fill="#262736"/>
<circle id="Oval_7" cx="6.09274" cy="6.09274" r="6.09274" transform="matrix(0.701003 -0.713158 0.701003 0.713158 119.922 71.498)" fill="#262736"/>
<ellipse id="Oval_8" cx="129.098" cy="79.3364" rx="6.65704" ry="6.81683" fill="#262736"/>
<ellipse id="Oval_9" cx="6.80842" cy="6.66549" rx="6.80842" ry="6.66549" transform="matrix(0.225996 -0.974128 0.972362 0.233478 127.738 84.875)" fill="#262736"/>
<path id="Path_23" d="M157.84 93.8615C157.84 94.4142 157.84 95.1157 157.888 95.7535C157.937 96.3912 157.937 97.0715 157.978 97.7305C158.068 99.0485 158.158 100.381 158.297 101.706C158.546 104.365 158.894 107.013 159.342 109.649C159.459 110.301 159.563 110.967 159.695 111.619L159.999 113.228C160.075 113.483 159.999 113.433 159.902 113.426C159.805 113.419 159.902 113.554 160.31 113.554C161.356 113.446 162.373 113.146 163.314 112.668C163.867 112.413 164.435 112.137 165.002 111.839C165.57 111.541 166.144 111.201 166.663 110.904L168.684 113.292C168.202 113.857 167.689 114.394 167.147 114.9C166.615 115.42 166.051 115.905 165.459 116.353C164.839 116.831 164.184 117.259 163.501 117.635C162.723 118.07 161.889 118.39 161.023 118.585C160.489 118.704 159.943 118.752 159.397 118.727C158.731 118.687 158.078 118.519 157.473 118.231C156.83 117.921 156.257 117.477 155.792 116.927C155.392 116.448 155.065 115.911 154.823 115.332C154.635 114.89 154.482 114.432 154.366 113.965L154.096 112.93C153.903 112.222 153.743 111.548 153.577 110.854C152.93 108.068 152.431 105.249 152.083 102.407C151.91 100.99 151.771 99.5729 151.688 98.1202C151.647 97.4116 151.612 96.703 151.591 95.9519C151.57 95.2007 151.591 94.5347 151.591 93.6914L157.84 93.8615Z" fill="#FFB573"/>
<path id="Path_24" d="M154.478 86.2226C160.381 90.8498 160.145 99.5728 160.145 99.5728L149.585 102.159C149.585 102.159 146.347 93.3867 147.662 90.1767C149.032 86.832 151.156 83.6149 154.478 86.2226Z" fill="#E3AADD"/>
<path id="Path_25" opacity="0.7" d="M154.478 86.2226C160.381 90.8498 160.145 99.5728 160.145 99.5728L149.585 102.159C149.585 102.159 146.347 93.3867 147.662 90.1767C149.032 86.832 151.156 83.6149 154.478 86.2226Z" fill="white"/>
<path id="Path_26" d="M166.266 111.719L168.01 108.715L172.383 113.505C172.383 113.505 169.248 115.56 165.996 114.093L166.266 111.719Z" fill="#FFB573"/>
<path id="Path_27" d="M170.16 107.275L175.772 110.663L172.381 113.504L168.008 108.714L170.16 107.275Z" fill="#FFB573"/>
<path id="Path_28" d="M121.438 250.748L127.472 251.344L131.222 236.867L125.181 236.271L121.438 250.748Z" fill="#FFB573"/>
<path id="Path_29" d="M90.5039 238.583L95.9223 241.488L102.365 228.407L96.9464 225.502L90.5039 238.583Z" fill="#FFB573"/>
<path id="Path_30" d="M97.3697 238.944L92.5257 233.905C92.359 233.722 92.0842 233.698 91.8891 233.849L87.4395 237.2C87.2213 237.38 87.0877 237.646 87.0719 237.933C87.0561 238.219 87.1595 238.499 87.3565 238.703C89.0727 240.432 89.9861 241.176 92.1175 243.394C93.4323 244.754 96.1311 247.964 97.9441 249.849C99.7571 251.734 101.667 249.998 101.079 249.048C98.4354 244.797 97.9925 242.125 97.8265 239.964C97.7964 239.579 97.6347 239.218 97.3697 238.944Z" fill="#262736"/>
<path id="Path_31" d="M128.413 249.465H121.099C120.83 249.468 120.596 249.653 120.525 249.919L118.961 255.808C118.881 256.091 118.939 256.397 119.115 256.63C119.291 256.864 119.565 256.998 119.853 256.991C122.421 256.991 123.639 256.991 126.843 256.991H136.648C139.312 256.991 139.873 254.234 138.766 253.979C133.825 252.86 130.974 251.315 129.451 249.841C129.163 249.588 128.793 249.454 128.413 249.465Z" fill="#262736"/>
<path id="Path_32" opacity="0.2" d="M131.214 236.875L129.283 244.336H123.09L125.173 236.279L131.214 236.875Z" fill="black"/>
<path id="Path_33" opacity="0.2" d="M96.9427 225.502L102.368 228.414L99.0464 235.153L93.6211 232.241L96.9427 225.502Z" fill="black"/>
<path id="Path_34" d="M152.695 85.3314C152.695 85.3314 155.366 86.529 146.411 122.81L121.541 120.606C122.835 110.282 123.382 103.89 120.344 82.1852C123.889 81.7601 127.46 81.5967 131.028 81.6963C134.811 81.7549 138.585 82.0888 142.322 82.6954C145.821 83.3941 149.283 84.2739 152.695 85.3314Z" fill="#E3AADD"/>
<path id="Path_35" opacity="0.7" d="M152.695 85.3314C152.695 85.3314 155.366 86.529 146.411 122.81L121.541 120.606C122.835 110.282 123.382 103.89 120.344 82.1852C123.889 81.7601 127.46 81.5967 131.028 81.6963C134.811 81.7549 138.585 82.0888 142.322 82.6954C145.821 83.3941 149.283 84.2739 152.695 85.3314Z" fill="white"/>
<path id="Path_36" d="M131.028 81.4902C131.028 81.4902 129.644 81.4902 127.949 81.4902C126.945 83.0704 131.18 87.6835 136.564 92.2186C137.865 88.0874 139.913 88.1016 139.913 88.1016L131.028 81.4902Z" fill="white"/>
<path id="Path_37" d="M142.316 82.6035C142.316 82.6035 142.946 82.6956 144.454 83.0499C145.451 84.6301 146.011 88.5842 143.07 92.028C141.915 87.7764 139.922 88.159 139.922 88.159L142.316 82.6035Z" fill="white"/>
<path id="Path_38" d="M133.246 68.7695C133.647 72.5535 133.778 79.3987 131.031 81.6946C131.031 81.6946 133.965 84.77 139.917 88.1571C144.235 85.0959 142.325 82.6937 142.325 82.6937C138.353 81.3474 138.719 78.2791 139.667 75.4446L133.246 68.7695Z" fill="#FFB573"/>
<path id="Path_39" opacity="0.2" d="M135.866 71.498L139.665 75.445C139.432 76.101 139.256 76.7768 139.139 77.4645C137.617 77.1032 135.403 75.4734 135.375 73.801C135.402 73.0093 135.568 72.229 135.866 71.498V71.498Z" fill="black"/>
<path id="Path_40" d="M147.51 56.4277C150.056 58.7378 150.804 64.3642 148.382 68.1836C147.655 64.3118 147.362 60.3676 147.51 56.4277V56.4277Z" fill="#262736"/>
<path id="Path_41" d="M132.468 60.8275C132.025 67.0562 131.714 69.6852 134.343 73.2778C138.302 78.6845 145.872 77.8696 148.121 71.9031C150.149 66.5248 150.529 57.242 144.945 53.9682C142.45 52.4766 139.376 52.4205 136.831 53.8201C134.285 55.2196 132.633 57.8736 132.468 60.8275Z" fill="#FFB573"/>
<path id="Path_42" d="M131.658 65.8439C136.156 65.6667 138.647 59.6436 137.519 57.0996C142.619 59.8207 150.342 61.9607 149.484 58.4602C148.328 53.7337 142.744 50.2686 135.872 52.7913C131.893 54.5628 128.489 58.4602 131.658 65.8439Z" fill="#262736"/>
<path id="Path_43" d="M130.289 65.8373C130.481 67.0283 131.122 68.0945 132.074 68.8063C133.347 69.7346 134.51 68.7 134.6 67.1907C134.683 65.8231 134.122 63.6973 132.628 63.3713C131.963 63.236 131.276 63.4551 130.804 63.9531C130.331 64.4512 130.137 65.1605 130.289 65.8373Z" fill="#FFB573"/>
<path id="Path_44" d="M146.41 122.81C146.41 122.81 152.036 160.402 148.901 184.551C146.528 202.798 131.214 242.168 131.214 242.168L121.27 241.892C121.27 241.892 131.539 203.733 133.663 188.746C137.296 163.08 128.196 121.223 128.196 121.223L146.41 122.81Z" fill="#262736"/>
<path id="Path_45" opacity="0.2" d="M136.71 130.512L131.402 139.079C133.001 149.237 134.015 159.482 134.44 169.762C141.9 156.085 138.398 137.747 136.71 130.512Z" fill="black"/>
<path id="Path_46" d="M132.767 242.736L120.27 242.389L121.031 238.271L133.943 238.349L132.767 242.736Z" fill="#E3AADD"/>
<path id="Path_47" d="M140.972 122.404C140.972 122.404 136.82 164.028 127.333 186.675C119.659 204.957 101.362 234.202 101.362 234.202L94.0547 229.823C94.0547 229.823 105.819 197.304 111.625 185.116C125.79 155.234 112.614 131.262 121.541 120.633L140.972 122.404Z" fill="#262736"/>
<path id="Path_48" d="M102.157 234.84L92.8359 229.603L94.3514 225.521L104.282 231.261L102.157 234.84Z" fill="#E3AADD"/>
<path id="Path_49" d="M121.294 119.081L119.979 121.264C119.882 121.427 120.069 121.632 120.36 121.654L146.441 123.964C146.662 123.964 146.863 123.886 146.884 123.744L147.306 121.483C147.306 121.328 147.147 121.179 146.905 121.158L121.716 118.925C121.558 118.901 121.4 118.96 121.294 119.081Z" fill="#E3AADD"/>
<path id="Path_50" d="M124.435 122.263L123.743 122.207C123.612 122.207 123.515 122.114 123.529 122.029L124.096 119.096C124.096 119.004 124.241 118.947 124.373 118.961L125.065 119.018C125.203 119.018 125.3 119.11 125.279 119.195L124.719 122.129C124.691 122.214 124.56 122.277 124.435 122.263Z" fill="#262736"/>
<path id="Path_51" d="M144.523 124.042L143.831 123.986C143.692 123.986 143.595 123.894 143.616 123.809L144.184 120.875C144.184 120.79 144.322 120.726 144.453 120.74L145.145 120.797C145.277 120.797 145.374 120.889 145.36 120.974L144.792 123.908C144.779 124.007 144.626 124.057 144.523 124.042Z" fill="#262736"/>
<path id="Path_52" d="M134.474 123.157L133.782 123.093C133.651 123.093 133.554 123.001 133.568 122.916L134.135 119.982C134.135 119.897 134.274 119.834 134.412 119.848L135.104 119.911C135.235 119.911 135.332 120.004 135.318 120.089L134.751 123.022C134.737 123.107 134.613 123.164 134.474 123.157Z" fill="#262736"/>
<path id="Path_53" d="M141.998 63.9242C141.928 64.4273 142.136 64.8737 142.454 64.9163C142.773 64.9588 143.091 64.5903 143.146 64.0872C143.202 63.5841 143.001 63.1377 142.683 63.0951C142.364 63.0526 142.06 63.4211 141.998 63.9242Z" fill="#262736"/>
<path id="Path_54" d="M147.546 64.6898C147.484 65.1929 147.692 65.6394 148.01 65.6819C148.328 65.7244 148.646 65.3559 148.702 64.8528C148.757 64.3497 148.563 63.9033 148.245 63.8608C147.927 63.8182 147.615 64.1867 147.546 64.6898Z" fill="#262736"/>
<path id="Path_55" d="M148.086 63.8663L149.318 63.6821C149.318 63.6821 148.598 64.5395 148.086 63.8663Z" fill="#262736"/>
<path id="Path_56" d="M145.366 65.2422C145.654 66.4487 146.101 67.6096 146.695 68.6931C146.141 68.9947 145.485 69.031 144.902 68.7923L145.366 65.2422Z" fill="#ED893E"/>
<path id="Path_57" d="M142.024 70.2942C141.051 69.9694 140.235 69.2779 139.741 68.3597C139.715 68.2989 139.739 68.2281 139.796 68.1967C139.857 68.1659 139.931 68.1912 139.962 68.2534C140.586 69.3732 141.694 70.1208 142.945 70.2659C143.01 70.2659 143.062 70.3198 143.062 70.3863C143.062 70.4529 143.01 70.5068 142.945 70.5068C142.631 70.4714 142.322 70.4001 142.024 70.2942Z" fill="#262736"/>
<path id="Path_58" d="M139.469 61.0111C139.429 60.9941 139.393 60.9674 139.365 60.9332C139.319 60.8878 139.293 60.8251 139.293 60.7596C139.293 60.6941 139.319 60.6314 139.365 60.586C140.053 59.9557 141 59.7119 141.898 59.934C141.959 59.952 142.01 59.9946 142.04 60.052C142.07 60.1094 142.076 60.1767 142.057 60.2387C142.02 60.3694 141.887 60.4452 141.759 60.4088C141.021 60.2405 140.248 60.4462 139.683 60.9615C139.622 61.0094 139.544 61.0275 139.469 61.0111Z" fill="#262736"/>
<path id="Path_59" d="M149.878 62.5203C149.842 62.5058 149.809 62.4841 149.781 62.4565C149.29 61.8652 148.552 61.5494 147.795 61.6061C147.732 61.6207 147.665 61.6065 147.612 61.5672C147.559 61.5279 147.525 61.4673 147.519 61.4007C147.498 61.2657 147.588 61.139 147.719 61.1172C148.636 61.0327 149.536 61.4077 150.134 62.1234C150.203 62.2075 150.21 62.3281 150.151 62.4197C150.092 62.5114 149.981 62.5523 149.878 62.5203Z" fill="#262736"/>
<path id="Path_60" d="M155.351 115.985C156.57 112.096 159.722 109.169 163.62 108.306C167.518 107.442 171.57 108.774 174.249 111.799C176.929 114.824 177.828 119.083 176.609 122.972L172.305 136.761L151.047 129.767L155.351 115.985Z" fill="#E3AADD"/>
<path id="Path_61" opacity="0.3" d="M155.351 115.985C156.57 112.096 159.722 109.169 163.62 108.306C167.518 107.442 171.57 108.774 174.249 111.799C176.929 114.824 177.828 119.083 176.609 122.972L172.305 136.761L151.047 129.767L155.351 115.985Z" fill="black"/>
<path id="Path_62" d="M134.376 109.082L130.487 121.483C130.372 121.843 130.402 122.235 130.571 122.571C130.74 122.908 131.034 123.162 131.386 123.275L151.039 129.738L155.357 115.977C157.244 109.972 163.525 106.667 169.391 108.593L148.416 101.691C142.547 99.7695 136.266 103.076 134.376 109.082Z" fill="#E3AADD"/>
<path id="Path_63" d="M144.922 118.487L150.34 101.218C150.378 101.093 150.361 100.957 150.293 100.845C150.225 100.734 150.114 100.658 149.987 100.637L144.451 99.8008L143.759 102.04L147.794 103.365L143.227 117.92L144.922 118.487Z" fill="#262736"/>
<path id="Path_64" d="M142.045 117.538C141.695 118.656 142.296 119.852 143.387 120.21C144.478 120.569 145.646 119.955 145.998 118.838C146.349 117.722 145.751 116.525 144.66 116.164C144.136 115.99 143.565 116.037 143.074 116.295C142.583 116.553 142.213 117 142.045 117.538Z" fill="#262736"/>
<path id="Path_65" d="M152.069 131.803L179.334 140.766C179.534 140.833 179.752 140.815 179.939 140.717C180.126 140.618 180.267 140.447 180.33 140.242C180.398 140.037 180.381 139.813 180.285 139.621C180.188 139.429 180.02 139.285 179.818 139.222L151.045 129.762C150.778 130.615 151.236 131.528 152.069 131.803Z" fill="#E3AADD"/>
<path id="Path_66" opacity="0.2" d="M152.069 131.803L163.21 135.466C163.411 135.533 163.63 135.515 163.818 135.417C164.006 135.319 164.149 135.148 164.214 134.942C164.345 134.515 164.117 134.06 163.702 133.921L151.045 129.762C150.778 130.615 151.236 131.528 152.069 131.803Z" fill="black"/>
<path id="Path_67" d="M123.273 92.1894L122.892 92.6217L122.463 93.1248C122.172 93.4649 121.882 93.8334 121.605 94.1806C121.037 94.8892 120.498 95.6474 119.992 96.4127C117.902 99.4434 116.256 102.771 115.107 106.291C114.83 107.169 114.574 108.048 114.373 108.948C114.304 109.21 114.297 109.317 114.263 109.437C114.257 109.541 114.257 109.645 114.263 109.749C114.252 109.859 114.252 109.971 114.263 110.082C114.263 110.209 114.498 110.507 115.065 110.79C115.748 111.105 116.466 111.329 117.204 111.457C118.984 111.746 120.786 111.867 122.587 111.818C124.47 111.818 126.38 111.648 128.29 111.442C130.199 111.237 132.137 110.982 134.012 110.691L134.767 113.76C130.904 115.047 126.93 115.951 122.899 116.459C120.776 116.742 118.63 116.79 116.498 116.601C115.279 116.484 114.081 116.193 112.941 115.737C112.257 115.456 111.614 115.079 111.031 114.617C110.344 114.066 109.779 113.373 109.37 112.583C108.667 111.102 108.479 109.42 108.837 107.814C109.003 106.73 109.246 105.688 109.529 104.597C110.072 102.502 110.795 100.461 111.688 98.496C112.584 96.5268 113.628 94.6315 114.809 92.8272C115.404 91.9272 116.041 91.0556 116.705 90.1982C117.045 89.773 117.397 89.355 117.743 88.9369L118.304 88.3204C118.505 88.1007 118.664 87.9236 118.941 87.6543L123.273 92.1894Z" fill="#FFB573"/>
<path id="Path_68" d="M132.502 111.344L137.346 108.715L137.56 114.044C137.56 114.044 134.1 115.51 132.121 113.895L132.502 111.344Z" fill="#FFB573"/>
<path id="Path_69" d="M141.341 108.312L140.615 113.223L137.57 114.045L137.355 108.716L141.341 108.312Z" fill="#FFB573"/>
<path id="Path_70" d="M120.345 82.1992C117.293 82.7519 113.023 91.7088 113.023 91.7088L120.712 98.7949C120.712 98.7949 126.822 91.9639 126.497 87.8964C126.22 84.4597 124.227 81.4906 120.345 82.1992Z" fill="#E3AADD"/>
<path id="Path_71" opacity="0.7" d="M120.345 82.1992C117.293 82.7519 113.023 91.7088 113.023 91.7088L120.712 98.7949C120.712 98.7949 126.822 91.9639 126.497 87.8964C126.22 84.4597 124.227 81.4906 120.345 82.1992Z" fill="white"/>
<path id="Shape_3" fill-rule="evenodd" clip-rule="evenodd" d="M99.5074 241.679C99.5877 241.69 99.6692 241.69 99.7496 241.679C99.9395 241.612 100.102 241.483 100.213 241.311C100.322 241.177 100.353 240.994 100.296 240.829C100.026 240.085 97.8742 239.589 97.6251 239.539C97.5774 239.526 97.5265 239.546 97.5006 239.589C97.4738 239.63 97.4738 239.683 97.5006 239.724C97.9227 240.432 98.7392 241.637 99.5074 241.679ZM99.5222 241.459C99.0863 241.431 98.4773 240.85 97.8614 239.879C98.6088 240.063 99.9028 240.488 100.069 240.942C100.1 241.025 100.081 241.119 100.02 241.183C99.9134 241.358 99.7242 241.463 99.5222 241.459Z" fill="#E3AADD"/>
<path id="Shape_4" fill-rule="evenodd" clip-rule="evenodd" d="M97.5705 240.029C98.2211 240.171 98.8907 240.138 99.5288 239.931C99.824 239.859 100.091 239.676 100.29 239.409C100.413 239.183 100.39 238.887 100.235 238.691C100.107 238.479 99.9013 238.352 99.6811 238.348C98.853 238.279 97.687 239.564 97.5088 239.761C97.4978 239.773 97.4906 239.781 97.4874 239.784C97.4677 239.828 97.4677 239.88 97.4874 239.923C97.4974 239.973 97.5289 240.013 97.5705 240.029ZM100.118 239.246C99.8478 239.711 98.5538 239.915 97.8618 239.801C98.2216 239.418 99.0936 238.585 99.6956 238.634C99.8452 238.637 99.9844 238.726 100.069 238.871C100.194 239.059 100.159 239.173 100.118 239.246Z" fill="#E3AADD"/>
<path id="Shape_5" fill-rule="evenodd" clip-rule="evenodd" d="M129.008 250.341C129.659 250.522 130.325 250.623 130.994 250.642C131.496 250.694 131.999 250.56 132.433 250.26C132.653 250.069 132.786 249.768 132.793 249.447C132.808 249.274 132.742 249.105 132.62 249.007C131.955 248.455 129.305 249.91 129.008 250.081C128.961 250.1 128.93 250.153 128.93 250.211C128.93 250.269 128.961 250.321 129.008 250.341ZM132.262 250.023C131.66 250.552 130.206 250.324 129.424 250.153H129.404C130.518 249.584 132.082 248.942 132.455 249.243C132.509 249.282 132.537 249.357 132.525 249.43C132.514 249.663 132.418 249.879 132.262 250.023Z" fill="#E3AADD"/>
<path id="Shape_6" fill-rule="evenodd" clip-rule="evenodd" d="M128.954 250.139C128.979 250.146 129.005 250.146 129.03 250.139L129.092 250.16C129.888 249.82 131.556 248.481 131.466 247.772C131.445 247.623 131.348 247.446 130.988 247.396C129.542 247.226 128.912 249.898 128.912 250.011C128.904 250.058 128.92 250.106 128.954 250.139ZM129.216 249.792C129.396 249.168 129.929 247.61 130.842 247.61L130.946 247.617C131.216 247.645 131.216 247.744 131.216 247.78C131.292 248.212 130.081 249.324 129.216 249.792Z" fill="#E3AADD"/>
<path id="Path_72" d="M142.547 63.1026L143.772 62.9184C143.772 62.9184 143.045 63.7758 142.547 63.1026Z" fill="#262736"/>
</g>
<g id="freepik--E-mails--inject-34">
<path id="Path_73" d="M185.131 122.386L158.337 128.055C157.384 128.238 156.462 127.609 156.261 126.638L155.008 120.686L154.559 118.489L155.347 115.98C155.457 115.62 155.589 115.268 155.742 114.925C155.759 114.87 155.782 114.818 155.811 114.769C156.253 113.736 156.848 112.78 157.576 111.934L158.96 111.637L181.934 106.754C182.887 106.571 183.809 107.2 184.01 108.172L186.453 120.218C186.661 121.188 186.074 122.151 185.131 122.386Z" fill="#E3AADD"/>
<path id="Path_74" opacity="0.3" d="M183.802 107.534L170.875 120.997L168.107 119.849L157.34 115.378L155.824 114.747C156.266 113.715 156.861 112.759 157.589 111.913L158.973 111.615L181.947 106.733C182.667 106.586 183.402 106.903 183.802 107.534Z" fill="black"/>
<path id="Path_75" d="M183.801 107.535L168.106 119.872L167.082 120.679L157.221 115.67L155.754 114.961C155.771 114.906 155.794 114.854 155.823 114.805C156.265 113.773 156.86 112.817 157.588 111.971L158.972 111.673L181.946 106.791C182.654 106.632 183.386 106.925 183.801 107.535Z" fill="#E3AADD"/>
<path id="Path_76" opacity="0.2" d="M183.801 107.535L168.106 119.872L167.082 120.679L157.221 115.67L155.754 114.961C155.771 114.906 155.794 114.854 155.823 114.805C156.265 113.773 156.86 112.817 157.588 111.971L158.972 111.673L181.946 106.791C182.654 106.632 183.386 106.925 183.801 107.535Z" fill="white"/>
<path id="Path_77" d="M217.84 147.237L209.675 156.251C209.004 156.982 207.883 157.023 207.163 156.343L187.136 137.246C186.418 136.561 186.378 135.41 187.046 134.674L195.24 125.66C195.56 125.303 196.007 125.093 196.48 125.075C196.953 125.058 197.414 125.236 197.758 125.568L217.778 144.665C218.309 145.171 218.487 145.956 218.228 146.649C218.141 146.871 218.009 147.072 217.84 147.237Z" fill="#E3AADD"/>
<path id="Path_78" opacity="0.3" d="M218.203 146.686L199.99 143.646L195.762 125.222C196.422 124.91 197.2 125.036 197.734 125.541L217.753 144.638C218.311 145.154 218.491 145.974 218.203 146.686Z" fill="black"/>
<path id="Path_79" d="M218.203 146.684L200.467 141.27L195.762 125.284C196.422 124.973 197.2 125.099 197.734 125.603L217.753 144.7C218.284 145.206 218.462 145.991 218.203 146.684Z" fill="#E3AADD"/>
<path id="Path_80" opacity="0.2" d="M218.203 146.684L200.467 141.27L195.762 125.284C196.422 124.973 197.2 125.099 197.734 125.603L217.753 144.7C218.284 145.206 218.462 145.991 218.203 146.684Z" fill="white"/>
<path id="Path_81" d="M224.964 162.083L233.96 172.84C234.307 173.256 234.472 173.8 234.416 174.344C234.36 174.888 234.087 175.385 233.662 175.717L214.12 191.307C213.44 191.726 212.559 191.548 212.086 190.896L205.048 182.676C204.916 182.518 204.806 182.341 204.723 182.151C204.456 181.619 204.518 180.976 204.882 180.507L222.182 162.005C222.737 161.391 223.618 161.218 224.355 161.58C224.587 161.707 224.794 161.878 224.964 162.083Z" fill="#E3AADD"/>
<path id="Path_82" opacity="0.3" d="M224.354 161.6L220.057 181.172L204.75 182.171C204.483 181.639 204.546 180.996 204.909 180.527L222.209 162.025C222.759 161.424 223.625 161.252 224.354 161.6Z" fill="black"/>
<path id="Path_83" d="M224.353 161.601L217.149 182.37L204.735 182.172C204.468 181.64 204.53 180.996 204.894 180.528L222.194 162.026C222.746 161.418 223.619 161.246 224.353 161.601Z" fill="#E3AADD"/>
<path id="Path_84" opacity="0.2" d="M224.353 161.601L217.149 182.37L204.735 182.172C204.468 181.64 204.53 180.996 204.894 180.528L222.194 162.026C222.746 161.418 223.619 161.246 224.353 161.601Z" fill="white"/>
</g>
</g>
</svg>
