<svg width="89" height="89" viewBox="0 0 89 89" fill="none" xmlns="http://www.w3.org/2000/svg">
<rect width="89" height="89" rx="44.5" fill="#EDEBC1"/>
<path d="M41.6102 26.7598C34.0733 26.7598 27.9414 32.778 27.9414 40.1754C27.9414 47.5728 34.0733 53.591 41.6102 53.591C49.1471 53.591 55.2789 47.5728 55.2789 40.1754C55.2789 32.778 49.1471 26.7598 41.6102 26.7598ZM46.3233 45.3304C46.1766 45.4747 46.0023 45.5892 45.8103 45.6673C45.6184 45.7453 45.4126 45.7854 45.2048 45.7851C44.7998 45.7851 44.3951 45.6335 44.0861 45.3303C43.4249 44.6811 42.5458 44.3238 41.6103 44.3238C40.675 44.3238 39.7957 44.6812 39.1343 45.3303C38.5165 45.9366 37.5148 45.9366 36.897 45.3303C36.2791 44.724 36.2791 43.7408 36.897 43.1344C38.1559 41.8987 39.8298 41.2183 41.6102 41.2183C43.3908 41.2183 45.0647 41.8987 46.3234 43.1344C46.9413 43.7408 46.9413 44.724 46.3233 45.3304ZM51.1166 40.6261C50.4986 41.2324 49.4971 41.2326 48.8792 40.6261C44.871 36.6922 38.3493 36.6924 34.3414 40.6261C34.0324 40.9293 33.6275 41.0809 33.2228 41.0809C32.818 41.0809 32.413 40.9293 32.1042 40.6261C31.4863 40.0198 31.4863 39.0366 32.1042 38.4302C37.3457 33.2856 45.8747 33.2856 51.1166 38.4302C51.7343 39.0366 51.7343 40.0197 51.1166 40.6261Z" fill="#957C22"/>
<path d="M70.5439 61.6729L61.4516 52.749C63.905 49.0362 65.2217 44.7055 65.2217 40.1757C65.2217 33.9858 62.7657 28.1663 58.3063 23.7894C53.8467 19.4124 47.9175 17.002 41.6108 17.002C35.304 17.002 29.375 19.4124 24.9154 23.7894C20.4559 28.1663 18 33.9858 18 40.1757C18 46.3656 20.4559 52.1851 24.9154 56.562C29.3749 60.939 35.304 63.3494 41.6108 63.3494C46.2262 63.3494 50.6386 62.0569 54.4215 59.649L63.5137 68.5729C64.4828 69.524 65.7558 69.9995 67.0287 69.9995C68.3017 69.9995 69.5749 69.5239 70.5439 68.5728C71.4828 67.6513 72 66.4261 72 65.1228C72 63.8196 71.4829 62.5944 70.5439 61.6729ZM41.6108 56.6968C32.3291 56.6968 24.7779 49.2855 24.7779 40.1757C24.7779 31.0659 32.3291 23.6546 41.6108 23.6546C50.8924 23.6546 58.4436 31.0659 58.4436 40.1757C58.4436 49.2855 50.8924 56.6968 41.6108 56.6968Z" fill="#957C22"/>
</svg>
