<svg width="89" height="89" viewBox="0 0 89 89" fill="none" xmlns="http://www.w3.org/2000/svg">
<rect width="89" height="89" rx="44.5" fill="#9BDFF9"/>
<g clip-path="url(#clip0_1527_17305)">
<path d="M35.8079 48.9067V57.5076C35.8079 58.4922 34.9592 59.2947 33.9197 59.2947C32.8802 59.2947 32.0472 58.4922 32.0472 57.5076V48.9067C32.0472 47.9378 32.8802 47.1345 33.9197 47.1345C34.9601 47.1345 35.8079 47.9378 35.8079 48.9067ZM46.8802 48.9067V57.5076C46.8802 58.4922 46.0481 59.2947 45.0077 59.2947C44.5072 59.2938 44.0274 59.1053 43.6735 58.7703C43.3196 58.4354 43.1204 57.9813 43.1194 57.5076V48.9067C43.1194 47.9378 43.9682 47.1345 45.0077 47.1345C46.0481 47.1345 46.8802 47.9378 46.8802 48.9067ZM46.8802 48.9067V57.5076C46.8802 58.4922 46.0481 59.2947 45.0077 59.2947C44.5072 59.2938 44.0274 59.1053 43.6735 58.7703C43.3196 58.4354 43.1204 57.9813 43.1194 57.5076V48.9067C43.1194 47.9378 43.9682 47.1345 45.0077 47.1345C46.0481 47.1345 46.8802 47.9378 46.8802 48.9067ZM46.8802 48.9067V57.5076C46.8802 58.4922 46.0481 59.2947 45.0077 59.2947C44.5072 59.2938 44.0274 59.1053 43.6735 58.7703C43.3196 58.4354 43.1204 57.9813 43.1194 57.5076V48.9067C43.1194 47.9378 43.9682 47.1345 45.0077 47.1345C46.0481 47.1345 46.8802 47.9378 46.8802 48.9067ZM57.9682 48.9067V52.1173C56.5278 52.7614 55.2465 53.6849 54.2074 54.8278V48.9067C54.2074 47.9378 55.0562 47.1345 56.0799 47.1345C57.1194 47.1345 57.9682 47.9378 57.9682 48.9067ZM46.8802 48.9067V57.5076C46.8802 58.4922 46.0481 59.2947 45.0077 59.2947C44.5072 59.2938 44.0274 59.1053 43.6735 58.7703C43.3196 58.4354 43.1204 57.9813 43.1194 57.5076V48.9067C43.1194 47.9378 43.9682 47.1345 45.0077 47.1345C46.0481 47.1345 46.8802 47.9378 46.8802 48.9067ZM69.3598 43.7889L67.1522 51.9045C65.7822 51.3489 64.3062 51.0656 62.8157 51.0723C61.6799 51.0723 60.5914 51.2238 59.5677 51.5269V48.9059C59.5677 47.089 57.9997 45.6199 56.0799 45.6199C55.1597 45.6216 54.2776 45.9684 53.6269 46.5843C52.9762 47.2001 52.6098 48.0349 52.6079 48.9059V57.159C51.866 58.6023 51.4829 60.1872 51.4879 61.7923C51.4879 63.2167 51.7916 64.5939 52.3192 65.8352H31.4723C30.0871 65.8353 28.7412 65.3995 27.6463 64.5965C26.5515 63.7934 25.7698 62.6685 25.4243 61.399L20.6398 43.7881L69.3598 43.7889ZM37.4074 48.9067C37.4074 47.0898 35.8394 45.6207 33.9197 45.6207C33.4636 45.6203 33.0119 45.705 32.5905 45.8699C32.169 46.0349 31.7861 46.277 31.4636 46.5822C31.1411 46.8874 30.8854 47.2498 30.711 47.6487C30.5367 48.0476 30.4472 48.4751 30.4477 48.9067V57.5076C30.4477 59.3253 31.9999 60.8093 33.9197 60.8093C34.8441 60.8072 35.7301 60.4586 36.3837 59.8398C37.0373 59.2211 37.4054 58.3825 37.4074 57.5076V48.9067ZM48.4797 48.9067C48.4801 48.4751 48.3907 48.0476 48.2163 47.6487C48.042 47.2498 47.7863 46.8874 47.4638 46.5822C47.1413 46.277 46.7584 46.0349 46.3369 45.8699C45.9155 45.705 45.4638 45.6203 45.0077 45.6207C43.0879 45.6207 41.5199 47.0898 41.5199 48.9067V57.5076C41.522 58.3825 41.8901 59.2211 42.5437 59.8398C43.1973 60.4586 44.0832 60.8072 45.0077 60.8093C46.9274 60.8093 48.4797 59.3253 48.4797 57.5076V48.9067ZM46.8802 48.9067V57.5076C46.8802 58.4922 46.0481 59.2947 45.0077 59.2947C44.5072 59.2938 44.0274 59.1053 43.6735 58.7703C43.3196 58.4354 43.1204 57.9813 43.1194 57.5076V48.9067C43.1194 47.9378 43.9682 47.1345 45.0077 47.1345C46.0481 47.1345 46.8802 47.9378 46.8802 48.9067ZM46.8802 48.9067V57.5076C46.8802 58.4922 46.0481 59.2947 45.0077 59.2947C44.5072 59.2938 44.0274 59.1053 43.6735 58.7703C43.3196 58.4354 43.1204 57.9813 43.1194 57.5076V48.9067C43.1194 47.9378 43.9682 47.1345 45.0077 47.1345C46.0481 47.1345 46.8802 47.9378 46.8802 48.9067ZM57.9682 48.9067V52.1173C56.5278 52.7614 55.2465 53.6849 54.2074 54.8278V48.9067C54.2074 47.9378 55.0562 47.1345 56.0799 47.1345C57.1194 47.1345 57.9682 47.9378 57.9682 48.9067ZM57.9682 48.9067V52.1173C56.5278 52.7614 55.2465 53.6849 54.2074 54.8278V48.9067C54.2074 47.9378 55.0562 47.1345 56.0799 47.1345C57.1194 47.1345 57.9682 47.9378 57.9682 48.9067ZM46.8802 48.9067V57.5076C46.8802 58.4922 46.0481 59.2947 45.0077 59.2947C44.5072 59.2938 44.0274 59.1053 43.6735 58.7703C43.3196 58.4354 43.1204 57.9813 43.1194 57.5076V48.9067C43.1194 47.9378 43.9682 47.1345 45.0077 47.1345C46.0481 47.1345 46.8802 47.9378 46.8802 48.9067ZM69.9688 40.5832C70.0327 40.7041 70.0966 40.825 70.1447 40.9459L70.2409 40.5832H69.9688ZM72.0478 37.0952C71.7522 36.809 71.3985 36.5823 71.008 36.4288C70.6175 36.2752 70.1983 36.198 69.7754 36.2016H67.3438C67.413 36.6698 67.4021 37.1454 67.3114 37.6103C67.2022 38.1799 66.975 38.7234 66.6428 39.2094C66.3106 39.6955 65.8801 40.1146 65.3759 40.4424C64.6018 40.9543 63.6804 41.2289 62.7361 41.2292C61.9803 41.2306 61.2355 41.0576 60.5663 40.7251C59.8971 40.3926 59.3237 39.9107 58.8957 39.3212L56.6242 36.2016H33.3921L31.1197 39.3212C30.6904 39.9093 30.1169 40.3902 29.4481 40.7225C28.7794 41.0549 28.0355 41.2287 27.2802 41.2292C26.3194 41.2292 25.4077 40.9567 24.6237 40.4424C24.1196 40.1146 23.6891 39.6955 23.3569 39.2094C23.0247 38.7233 22.7974 38.1798 22.6882 37.6103C22.5976 37.1457 22.5867 36.6703 22.6558 36.2024H20.2399C18.4637 36.2024 17.0234 37.5647 17.0234 39.2301C17.0234 40.0781 17.3918 40.8358 17.9684 41.3807C18.2661 41.664 18.6201 41.8888 19.0099 42.0421C19.3998 42.1955 19.8178 42.2744 20.2399 42.2743H69.7754C70.197 42.274 70.6144 42.195 71.0037 42.0418C71.3929 41.8886 71.7464 41.6641 72.0438 41.3812C72.3412 41.0984 72.5766 40.7628 72.7366 40.3936C72.8966 40.0245 72.978 39.6291 72.9762 39.2301C72.9762 38.3978 72.6236 37.6401 72.0478 37.0952ZM29.7993 38.4591L41.4088 22.5491C41.6375 22.2357 41.7987 21.8827 41.8832 21.5104C41.9677 21.138 41.9739 20.7535 41.9015 20.3788C41.829 20.0042 41.6792 19.6467 41.4608 19.3268C41.2424 19.007 40.9595 18.7309 40.6283 18.5145C40.2972 18.2981 39.9242 18.1455 39.5307 18.0655C39.1373 17.9855 38.731 17.9797 38.3352 18.0483C37.9393 18.1169 37.5616 18.2586 37.2236 18.4653C36.8856 18.6721 36.594 18.9398 36.3653 19.2532L24.7567 35.1623C24.528 35.4757 24.3668 35.8287 24.2823 36.2011C24.1978 36.5735 24.1916 36.958 24.264 37.3326C24.3365 37.7073 24.4863 38.0647 24.7047 38.3846C24.9231 38.7045 25.206 38.9805 25.5372 39.1969C25.8683 39.4134 26.2413 39.5659 26.6348 39.6459C27.0282 39.7259 27.4345 39.7318 27.8303 39.6632C28.2262 39.5946 28.6039 39.4529 28.9419 39.2461C29.2799 39.0394 29.5715 38.7717 29.8002 38.4583L29.7993 38.4591ZM64.4721 39.1978C64.8032 38.9814 65.0862 38.7054 65.3046 38.3855C65.5231 38.0656 65.6728 37.7081 65.7453 37.3335C65.8178 36.9588 65.8116 36.5743 65.727 36.2019C65.6425 35.8295 65.4813 35.4766 65.2526 35.1631L53.6422 19.2524C53.1804 18.6194 52.4718 18.186 51.6723 18.0474C50.8729 17.9089 50.048 18.0766 49.3792 18.5137C48.7104 18.9508 48.2524 19.6214 48.106 20.378C47.9597 21.1347 48.1369 21.9153 48.5987 22.5483L60.2099 38.4591C60.6717 39.0919 61.3801 39.5252 62.1794 39.6637C62.9787 39.8022 63.8033 39.6346 64.4721 39.1978ZM72.5439 61.7932C72.5445 63.0025 72.2932 64.2 71.8045 65.3174C71.3158 66.4347 70.5991 67.45 69.6956 68.3051C68.792 69.1601 67.7192 69.8383 66.5386 70.3007C65.358 70.7632 64.0926 71.0009 62.8148 71.0003C57.4388 71.0003 53.0866 66.8812 53.0866 61.7932C53.0866 56.7052 57.4388 52.5869 62.8148 52.5869C64.0926 52.5861 65.358 52.8237 66.5387 53.2861C67.7194 53.7484 68.7922 54.4265 69.6958 55.2815C70.5995 56.1365 71.3162 57.1517 71.805 58.269C72.2939 59.3863 72.5444 60.5838 72.5439 61.7932ZM69.4552 61.7932C69.4545 61.5926 69.37 61.4005 69.2202 61.2587C69.0703 61.1169 68.8673 61.0369 68.6554 61.0362H63.6154V56.2663C63.6147 56.0657 63.5303 55.8736 63.3804 55.7318C63.2306 55.59 63.0276 55.51 62.8157 55.5093C62.7104 55.5083 62.6059 55.5272 62.5084 55.5649C62.4109 55.6026 62.3223 55.6583 62.2478 55.7288C62.1734 55.7993 62.1145 55.8831 62.0747 55.9754C62.0349 56.0677 62.0149 56.1666 62.0159 56.2663V61.0362H56.9759C56.8706 61.0353 56.7662 61.0541 56.6686 61.0918C56.5711 61.1295 56.4826 61.1852 56.4081 61.2557C56.3336 61.3262 56.2747 61.41 56.2349 61.5023C56.1951 61.5946 56.1751 61.6935 56.1762 61.7932C56.1762 62.2172 56.5279 62.5509 56.9759 62.5509H62.0159V67.3209C62.0159 67.7449 62.3677 68.0778 62.8157 68.0778C63.0276 68.0771 63.2306 67.9972 63.3804 67.8554C63.5303 67.7136 63.6147 67.5214 63.6154 67.3209V62.5509H68.6554C68.8676 62.5505 69.071 62.4705 69.2211 62.3285C69.3711 62.1865 69.4547 61.994 69.4552 61.7932Z" fill="#074F6B"/>
</g>
<defs>
<clipPath id="clip0_1527_17305">
<rect width="56" height="53" fill="white" transform="translate(17 18)"/>
</clipPath>
</defs>
</svg>
