<svg width="89" height="89" viewBox="0 0 89 89" fill="none" xmlns="http://www.w3.org/2000/svg">
<rect width="89" height="89" rx="44.5" fill="#CAE7E6"/>
<path fill-rule="evenodd" clip-rule="evenodd" d="M63.8008 67.0077H16.2637C15.0723 67.0077 14 65.9012 14 64.3799V46.1241H66.0645V64.3799C66.0645 65.9012 65.1113 67.0077 63.8008 67.0077ZM28.8926 63.5501C25.0801 63.5501 21.9824 59.9543 21.9824 55.5286C21.9824 51.103 25.0801 47.5071 28.8926 47.5071C32.7051 47.5071 35.9219 51.103 35.9219 55.5286C35.9219 59.9543 32.8242 63.5501 29.0117 63.5501H28.8926ZM26.1523 49.8582C24.6035 50.8263 23.5312 52.6243 23.4121 54.8371H25.0801C25.1992 52.9009 25.5566 51.103 26.1523 49.8582ZM26.3906 54.8371H28.2969V49.305C27.3438 49.9965 26.5098 51.9328 26.3906 54.8371ZM23.4121 56.3584C23.5312 58.4329 24.6035 60.2309 26.1523 61.199C25.5566 59.9543 25.1992 58.1563 25.0801 56.3584H23.4121ZM28.2969 61.7522V56.3584H26.3906C26.5098 59.1245 27.3438 61.199 28.2969 61.7522ZM31.752 61.199C33.3008 60.2309 34.373 58.4329 34.4922 56.3584H32.8242C32.7051 58.1563 32.3477 59.9543 31.752 61.199ZM31.5137 56.3584H29.6074V61.7522C30.5605 61.199 31.3945 59.1245 31.5137 56.3584ZM34.4922 54.8371C34.373 52.6243 33.3008 50.8263 31.752 49.8582C32.3477 51.103 32.7051 52.9009 32.8242 54.8371H34.4922ZM29.6074 49.305V54.8371H31.5137C31.3945 51.9328 30.5605 49.9965 29.6074 49.305ZM58.082 53.4541H47.1211C46.7637 53.4541 46.4062 53.0392 46.4062 52.6243C46.4062 52.2094 46.7637 51.7945 47.1211 51.7945H58.082C58.5586 51.7945 58.916 52.2094 58.916 52.6243C58.916 53.0392 58.5586 53.4541 58.082 53.4541ZM58.082 59.2628H47.1211C46.7637 59.2628 46.4062 58.9862 46.4062 58.4329C46.4062 58.018 46.7637 57.6031 47.1211 57.6031H58.082C58.5586 57.6031 58.916 58.018 58.916 58.4329C58.916 58.9862 58.5586 59.2628 58.082 59.2628ZM14 35.4749V33.8152C14 32.4322 15.0723 31.1875 16.2637 31.1875H63.8008C65.1113 31.1875 66.0645 32.4322 66.0645 33.8152V35.4749H14ZM65.3496 44.4645H14.7148C14.3574 44.4645 14 44.0496 14 43.6347V37.9643C14 37.5494 14.3574 37.1345 14.7148 37.1345H65.3496C65.707 37.1345 66.0645 37.5494 66.0645 37.9643V43.6347C66.0645 44.0496 65.707 44.4645 65.3496 44.4645Z" fill="#346463"/>
<path fill-rule="evenodd" clip-rule="evenodd" d="M72.7383 58.0184H67.4961V33.8156C67.4961 31.4645 65.8281 29.5282 63.8027 29.5282H22.9375V24.826C22.9375 23.3047 23.8906 22.1982 25.2012 22.1982H72.7383C73.9297 22.1982 75.002 23.3047 75.002 24.826V55.3907C75.002 56.7737 73.9297 58.0184 72.7383 58.0184Z" fill="#346463"/>
</svg>
