<svg width="89" height="89" viewBox="0 0 89 89" fill="none" xmlns="http://www.w3.org/2000/svg">
<rect width="89" height="89" rx="44.5" fill="#FFD3D6"/>
<path d="M46.7192 65.4785C49.1038 63.8652 70 49.3729 70 37.0819C69.9898 33.6079 68.4655 30.2795 65.7615 27.827C63.0576 25.3745 59.3948 23.9981 55.5769 24C53.5931 23.9984 51.6301 24.3685 49.8104 25.0875C47.9907 25.8064 46.3532 26.8586 45 28.1787C43.6467 26.8588 42.0091 25.8067 40.1895 25.0877C38.3698 24.3688 36.4069 23.9986 34.4231 24C30.6052 23.9981 26.9424 25.3745 24.2385 27.827C21.5345 30.2795 20.0102 33.6079 20 37.0819C20 49.3729 40.8962 63.8652 43.2808 65.4785C43.7768 65.817 44.38 66 45 66C45.62 66 46.2232 65.817 46.7192 65.4785Z" fill="#EC6366"/>
</svg>
