<svg width="89" height="89" viewBox="0 0 89 89" fill="none" xmlns="http://www.w3.org/2000/svg">
<rect width="89" height="89" rx="44.5" fill="#FBD3C6"/>
<path d="M21.4915 46.9529L22.4735 47.5417V41.2329L20.7588 43.9858C20.1275 45.0029 20.4549 46.3335 21.4915 46.9529ZM35.7703 24.0423C35.2708 23.7442 34.6713 23.6525 34.103 23.7872C33.5347 23.922 33.044 24.2722 32.7384 24.7611L29.0908 30.6188H46.7288L35.7703 24.0423ZM53.8215 66.3458C54.8581 66.9652 56.2143 66.6441 56.8456 65.627L60.501 59.7694H42.8552L53.8215 66.3458ZM68.0925 43.4352L67.1105 42.8464V49.1629L68.8252 46.4099C69.4565 45.3852 69.1369 44.0547 68.0925 43.4352ZM27.2202 39.6882H23.6427V42.8082H29.7455C28.6454 42.0712 27.7892 41.0345 27.2825 39.8258L27.2202 39.6882ZM50.1427 39.8335C49.6336 41.0387 48.7778 42.0724 47.6797 42.8082H65.9413V39.6882H50.205L50.1427 39.8335ZM30.634 49.3464L30.1585 47.0982L27.8671 46.6317C27.3293 46.5247 26.8928 46.1347 26.7369 45.6223C26.581 45.1023 26.7213 44.5441 27.111 44.1617L27.3215 43.9552H23.6427V56.4582C23.6427 57.6511 24.6325 58.6223 25.8484 58.6223H35.9496V47.3429L33.1515 50.0882C32.3097 50.9141 30.8678 50.4797 30.634 49.3464ZM37.1187 46.1958V58.6223H40.3065V46.1958L38.7165 44.6358L37.1187 46.1958ZM50.431 44.2764C50.7974 44.6358 50.9377 45.1635 50.7896 45.6452C50.6415 46.1347 50.2284 46.5017 49.7218 46.6011L47.2666 47.0982L46.76 49.507C46.6275 50.1494 46.0508 50.6082 45.3883 50.6082C45.0141 50.6082 44.6556 50.4629 44.3906 50.2029L41.4756 47.3429V58.6223H63.7356C64.9515 58.6223 65.9413 57.6511 65.9413 56.4582V43.9552H50.1037L50.431 44.2764ZM52.7069 50.2946H61.1713C61.4987 50.2946 61.7559 50.5546 61.7559 50.8682C61.7559 51.1894 61.4987 51.4417 61.1713 51.4417H52.7069C52.5519 51.4417 52.4032 51.3813 52.2936 51.2737C52.184 51.1662 52.1224 51.0203 52.1224 50.8682C52.1224 50.7161 52.184 50.5702 52.2936 50.4626C52.4032 50.3551 52.5519 50.2946 52.7069 50.2946ZM52.7069 53.3917H61.1713C61.4987 53.3917 61.7559 53.6517 61.7559 53.9652C61.7559 54.2864 61.4987 54.5388 61.1713 54.5388H52.7069C52.5519 54.5388 52.4032 54.4783 52.2936 54.3708C52.184 54.2632 52.1224 54.1173 52.1224 53.9652C52.1224 53.8131 52.184 53.6672 52.2936 53.5597C52.4032 53.4521 52.5519 53.3917 52.7069 53.3917ZM23.6427 38.5411H26.7447C26.129 37.0499 26.8538 35.3447 28.3659 34.7252L29.6675 34.1976C30.5015 33.8611 31.3744 33.6852 32.2708 33.6852C33.6113 33.6852 34.874 34.0599 35.9496 34.7405V31.7658H25.8484C24.6325 31.7658 23.6427 32.737 23.6427 33.9299V38.5411ZM39.1452 37.2182C39.4569 36.637 39.8544 36.117 40.3065 35.6735V31.7658H37.1187V35.6658C37.5785 36.117 37.9683 36.637 38.28 37.2182C38.4203 37.1952 38.5762 37.1876 38.7243 37.1876C38.8646 37.1876 39.0049 37.1952 39.1452 37.2182ZM63.7356 31.7658H41.4756V34.7405C42.5728 34.0486 43.8502 33.6822 45.1544 33.6852C46.0508 33.6852 46.9237 33.8611 47.7655 34.1976L49.0593 34.7252C49.7864 35.0249 50.3645 35.5927 50.6691 36.3063C50.9738 37.02 50.9807 37.8225 50.6883 38.5411H65.9413V33.9299C65.9413 32.737 64.9515 31.7658 63.7356 31.7658Z" fill="#633121"/>
<path d="M45.6156 49.2777L46.2469 46.2724C46.2564 46.2293 46.2784 46.1898 46.3102 46.1586C46.342 46.1274 46.3823 46.1058 46.4262 46.0965L49.4893 45.4771C49.6764 45.4389 49.7387 45.2171 49.6062 45.0948L47.4316 42.9612C44.4138 44.8034 41.6562 43.5654 41.4769 43.5501C41.1106 43.9324 40.6586 44.2383 40.1597 44.4295L45.2259 49.3924C45.3506 49.5224 45.5766 49.4612 45.6156 49.2777ZM28.1022 45.5077L30.9393 46.0812C31.0718 46.1118 31.1653 46.2036 31.1965 46.3336L31.7811 49.1171C31.8278 49.3695 32.1396 49.4612 32.3266 49.2777L37.2681 44.4295C36.7693 44.2306 36.325 43.9248 35.9587 43.5501L35.608 43.6571C34.6753 43.9439 33.6906 44.0302 32.7209 43.9102C31.7512 43.7901 30.8192 43.4664 29.9884 42.9612L27.9386 44.9724C27.7593 45.1559 27.8528 45.4618 28.1022 45.5077ZM49.0606 39.3901L49.5984 38.1206C49.9803 37.2106 49.5438 36.163 48.6164 35.7883L47.3147 35.2606C46.0636 34.7497 44.6667 34.698 43.3799 35.1151C42.0931 35.5322 41.0025 36.3902 40.3078 37.5318C41.0716 37.8683 41.703 38.4495 42.0927 39.1759L45.1869 37.9218C45.4831 37.8071 45.8261 37.9371 45.9508 38.2354C46.0104 38.3753 46.011 38.5328 45.9526 38.6732C45.8942 38.8137 45.7814 38.9257 45.639 38.9848L42.4902 40.2618C42.5291 40.4836 42.5525 40.7054 42.5525 40.9424C42.5525 41.5236 42.42 42.0742 42.1784 42.5636C44.9297 43.4048 47.9383 42.0589 49.0606 39.3901ZM32.2409 37.9218L35.3274 39.1759C35.7249 38.4571 36.3562 37.8759 37.12 37.5318C36.4254 36.3902 35.3348 35.5322 34.048 35.1151C32.7611 34.698 31.3643 34.7497 30.1131 35.2606L28.8193 35.7883C27.884 36.163 27.4475 37.2106 27.8294 38.1206L28.3672 39.3901C28.9042 40.6678 29.9091 41.7021 31.1842 42.2894C32.4593 42.8767 33.9123 42.9745 35.2572 42.5636C35.0078 42.0742 34.8753 41.5236 34.8753 40.9424C34.8753 40.713 34.8987 40.4836 34.9377 40.2618L31.7966 38.9848C31.7252 38.9566 31.6601 38.9147 31.6053 38.8617C31.5504 38.8086 31.5068 38.7454 31.4771 38.6756C31.4474 38.6059 31.4321 38.5311 31.4321 38.4555C31.4321 38.3799 31.4474 38.3051 31.4771 38.2354C31.6018 37.9371 31.9447 37.8071 32.2409 37.9218Z" fill="#633121"/>
<path d="M41.3797 40.9448C41.3795 40.2528 41.0993 39.5891 40.6006 39.0997C40.1019 38.6103 39.4257 38.3352 38.7203 38.3348C38.37 38.3335 38.0228 38.4 37.6987 38.5305C37.3745 38.6611 37.0798 38.8531 36.8314 39.0955C36.583 39.3379 36.3858 39.6261 36.2511 39.9434C36.1163 40.2607 36.0467 40.601 36.0462 40.9448C36.0454 41.2894 36.1139 41.6309 36.248 41.9495C36.3821 42.2681 36.579 42.5575 36.8274 42.8013C37.0758 43.045 37.3708 43.2381 37.6955 43.3697C38.0203 43.5012 38.3683 43.5685 38.7196 43.5677C39.0699 43.5672 39.4166 43.4989 39.74 43.3668C40.0634 43.2346 40.357 43.0412 40.6041 42.7975C40.8512 42.5539 41.0469 42.2649 41.18 41.9469C41.3131 41.629 41.3809 41.2884 41.3797 40.9448ZM21.4283 24.3912C21.4283 24.5433 21.4899 24.6892 21.5995 24.7967C21.7092 24.9043 21.8578 24.9647 22.0129 24.9647C22.1679 24.9647 22.3166 24.9043 22.4262 24.7967C22.5358 24.6892 22.5974 24.5433 22.5974 24.3912V23.4185H23.5896C23.7447 23.4185 23.8933 23.358 24.003 23.2505C24.1126 23.1429 24.1742 22.997 24.1742 22.8449C24.1742 22.6928 24.1126 22.5469 24.003 22.4394C23.8933 22.3318 23.7447 22.2714 23.5896 22.2714H22.5982V21.2972C22.5982 21.1451 22.5366 20.9992 22.427 20.8916C22.3174 20.7841 22.1687 20.7236 22.0137 20.7236C21.8586 20.7236 21.7099 20.7841 21.6003 20.8916C21.4907 20.9992 21.4291 21.1451 21.4291 21.2972V22.2706H20.4361C20.2811 22.2706 20.1324 22.3311 20.0228 22.4386C19.9131 22.5462 19.8516 22.6921 19.8516 22.8442C19.8516 22.9963 19.9131 23.1422 20.0228 23.2497C20.1324 23.3573 20.2811 23.4177 20.4361 23.4177H21.4283V24.3912ZM64.5119 66.5823H63.5204V65.6088C63.5204 65.4567 63.4589 65.3108 63.3492 65.2033C63.2396 65.0957 63.0909 65.0353 62.9359 65.0353C62.7808 65.0353 62.6322 65.0957 62.5225 65.2033C62.4129 65.3108 62.3513 65.4567 62.3513 65.6088V66.5823H61.3584C61.2033 66.5823 61.0546 66.6427 60.945 66.7503C60.8354 66.8578 60.7738 67.0037 60.7738 67.1558C60.7738 67.3079 60.8354 67.4538 60.945 67.5614C61.0546 67.6689 61.2033 67.7293 61.3584 67.7293H62.3513V68.7028C62.3513 68.8549 62.4129 69.0008 62.5225 69.1084C62.6322 69.2159 62.7808 69.2763 62.9359 69.2763C63.0909 69.2763 63.2396 69.2159 63.3492 69.1084C63.4589 69.0008 63.5204 68.8549 63.5204 68.7028V67.7293H64.5119C64.6669 67.7293 64.8156 67.6689 64.9252 67.5614C65.0348 67.4538 65.0964 67.3079 65.0964 67.1558C65.0964 67.0037 65.0348 66.8578 64.9252 66.7503C64.8156 66.6427 64.6669 66.5823 64.5119 66.5823ZM22.4688 66.0325C22.0546 66.0327 21.6575 66.1942 21.3646 66.4815C21.0717 66.7689 20.9071 67.1586 20.9069 67.5649C20.9069 68.4046 21.6068 69.0913 22.4688 69.0913C22.8737 69.0787 23.2577 68.9121 23.5396 68.6266C23.8215 68.3412 23.9791 67.9593 23.9791 67.5619C23.9791 67.1644 23.8215 66.7826 23.5396 66.4971C23.2577 66.2117 22.8737 66.045 22.4688 66.0325ZM57.2384 27.0355C57.6433 27.023 58.0273 26.8563 58.3092 26.5709C58.5911 26.2854 58.7487 25.9036 58.7487 25.5061C58.7487 25.1087 58.5911 24.7268 58.3092 24.4413C58.0273 24.1559 57.6433 23.9893 57.2384 23.9767C57.0332 23.9767 56.83 24.0164 56.6404 24.0934C56.4508 24.1705 56.2785 24.2834 56.1334 24.4258C55.9883 24.5681 55.8732 24.7372 55.7946 24.9232C55.7161 25.1092 55.6757 25.3086 55.6757 25.5099C55.6757 26.3488 56.3756 27.0355 57.2384 27.0355ZM26.03 28.4357C26.185 28.4357 26.3337 28.3753 26.4433 28.2677C26.5529 28.1602 26.6145 28.0143 26.6145 27.8622V27.6465C26.6145 27.4944 26.5529 27.3485 26.4433 27.241C26.3337 27.1334 26.185 27.073 26.03 27.073C25.8749 27.073 25.7262 27.1334 25.6166 27.241C25.507 27.3485 25.4454 27.4944 25.4454 27.6465V27.8622C25.4454 28.1788 25.7073 28.4357 26.03 28.4357ZM42.1459 23.5255C42.3009 23.5255 42.4496 23.4651 42.5592 23.3575C42.6688 23.25 42.7304 23.1041 42.7304 22.952V22.7363C42.7304 22.5842 42.6688 22.4384 42.5592 22.3308C42.4496 22.2232 42.3009 22.1628 42.1459 22.1628C41.9908 22.1628 41.8421 22.2232 41.7325 22.3308C41.6229 22.4384 41.5613 22.5842 41.5613 22.7363V22.952C41.5613 23.2686 41.8224 23.5255 42.1459 23.5255ZM48.9844 27.8247C49.1395 27.8247 49.2881 27.7643 49.3978 27.6567C49.5074 27.5492 49.569 27.4033 49.569 27.2512V27.0355C49.569 26.8834 49.5074 26.7375 49.3978 26.63C49.2881 26.5224 49.1395 26.462 48.9844 26.462C48.8294 26.462 48.6807 26.5224 48.5711 26.63C48.4614 26.7375 48.3999 26.8834 48.3999 27.0355V27.2512C48.3999 27.5678 48.6617 27.8247 48.9844 27.8247ZM68.3762 33.5608C68.5312 33.5608 68.6799 33.5003 68.7895 33.3928C68.8992 33.2852 68.9607 33.1393 68.9607 32.9872V32.7716C68.9607 32.6195 68.8992 32.4736 68.7895 32.366C68.6799 32.2585 68.5312 32.198 68.3762 32.198C68.2211 32.198 68.0725 32.2585 67.9628 32.366C67.8532 32.4736 67.7916 32.6195 67.7916 32.7716V32.9872C67.7916 33.3038 68.0535 33.5608 68.3762 33.5608ZM64.5119 23.5255C64.6669 23.5255 64.8156 23.4651 64.9252 23.3575C65.0348 23.25 65.0964 23.1041 65.0964 22.952V22.7363C65.0964 22.5842 65.0348 22.4384 64.9252 22.3308C64.8156 22.2232 64.6669 22.1628 64.5119 22.1628C64.3568 22.1628 64.2081 22.2232 64.0985 22.3308C63.9889 22.4384 63.9273 22.5842 63.9273 22.7363V22.952C63.9273 23.2686 64.1892 23.5255 64.5119 23.5255ZM37.6245 61.5543C37.4695 61.5543 37.3208 61.6148 37.2111 61.7223C37.1015 61.8299 37.0399 61.9758 37.0399 62.1279V62.3443C37.0399 62.4964 37.1015 62.6423 37.2111 62.7498C37.3208 62.8574 37.4695 62.9178 37.6245 62.9178C37.7795 62.9178 37.9282 62.8574 38.0378 62.7498C38.1475 62.6423 38.209 62.4964 38.209 62.3443V62.1279C38.209 61.9758 38.1475 61.8299 38.0378 61.7223C37.9282 61.6148 37.7795 61.5543 37.6245 61.5543ZM44.792 66.8798C44.6369 66.8798 44.4882 66.9402 44.3786 67.0477C44.269 67.1553 44.2074 67.3012 44.2074 67.4533V67.6697C44.2074 67.8218 44.269 67.9677 44.3786 68.0752C44.4882 68.1828 44.6369 68.2432 44.792 68.2432C44.947 68.2432 45.0957 68.1828 45.2053 68.0752C45.3149 67.9677 45.3765 67.8218 45.3765 67.6697V67.4533C45.3765 67.3012 45.3149 67.1553 45.2053 67.0477C45.0957 66.9402 44.947 66.8798 44.792 66.8798ZM67.8228 61.4465C67.6678 61.4465 67.5191 61.5069 67.4095 61.6145C67.2998 61.7221 67.2382 61.8679 67.2382 62.0201V62.2365C67.2382 62.3886 67.2998 62.5345 67.4095 62.642C67.5191 62.7496 67.6678 62.81 67.8228 62.81C67.9778 62.81 68.1265 62.7496 68.2361 62.642C68.3458 62.5345 68.4074 62.3886 68.4074 62.2365V62.0201C68.4074 61.8679 68.3458 61.7221 68.2361 61.6145C68.1265 61.5069 67.9778 61.4465 67.8228 61.4465ZM29.7337 64.11C29.5787 64.11 29.43 64.1704 29.3204 64.278C29.2108 64.3855 29.1492 64.5314 29.1492 64.6835V64.8992C29.1492 65.0513 29.2108 65.1972 29.3204 65.3047C29.43 65.4123 29.5787 65.4727 29.7337 65.4727C29.8888 65.4727 30.0374 65.4123 30.1471 65.3047C30.2567 65.1972 30.3183 65.0513 30.3183 64.8992V64.6835C30.3183 64.5314 30.2567 64.3855 30.1471 64.278C30.0374 64.1704 29.8888 64.11 29.7337 64.11ZM21.6333 58.7341V58.5185C21.6333 58.3664 21.5717 58.2205 21.4621 58.1129C21.3525 58.0054 21.2038 57.9449 21.0487 57.9449C20.8937 57.9449 20.745 58.0054 20.6354 58.1129C20.5258 58.2205 20.4642 58.3664 20.4642 58.5185V58.7341C20.4642 58.8862 20.5258 59.0321 20.6354 59.1397C20.745 59.2472 20.8937 59.3076 21.0487 59.3076C21.2038 59.3076 21.3525 59.2472 21.4621 59.1397C21.5717 59.0321 21.6333 58.8862 21.6333 58.7341Z" fill="#633121"/>
</svg>
