<svg width="89" height="89" viewBox="0 0 89 89" fill="none" xmlns="http://www.w3.org/2000/svg">
<rect width="89" height="89" rx="44.5" fill="#DCE5E8"/>
<path fill-rule="evenodd" clip-rule="evenodd" d="M46.7524 13C50.0621 13.0002 53.2362 14.2329 55.5765 16.4269C57.9168 18.621 59.2316 21.5967 59.2319 24.6996V33.0461H54.4848V24.6996C54.4768 22.7819 53.6586 20.9453 52.2094 19.5919C50.7601 18.2385 48.7979 17.4786 46.7523 17.4786C44.7068 17.4786 42.7446 18.2385 41.2953 19.5919C39.8461 20.9453 39.0279 22.7819 39.0199 24.6996V29.9854H34.2728V24.6996C34.2731 21.5967 35.5879 18.621 37.9283 16.4269C40.2686 14.2328 43.4427 13.0001 46.7524 13ZM10 53.4018V47.3845C10.0006 47.2 10.079 47.0233 10.2181 46.8929C10.3572 46.7625 10.5457 46.689 10.7424 46.6884H21.4826V42.9834L32.6197 50.3934L21.4826 57.8028V54.0978H10.7424C10.5457 54.0973 10.3572 54.0238 10.2181 53.8934C10.079 53.763 10.0006 53.5862 10 53.4018ZM54.7158 56.0516C54.3002 54.9254 53.6187 53.9017 52.722 53.057C51.8253 52.2124 50.7367 51.5685 49.5374 51.1736C50.2906 50.627 50.8425 49.8732 51.1159 49.0178C51.3892 48.1623 51.3701 47.2482 51.0614 46.4034C50.7527 45.5586 50.1698 44.8256 49.3944 44.307C48.619 43.7884 47.69 43.5103 46.7375 43.5116C45.785 43.5128 44.8568 43.7935 44.083 44.3142C43.3092 44.8349 42.7286 45.5695 42.4225 46.4151C42.1164 47.2607 42.1002 48.175 42.3761 49.0296C42.6521 49.8843 43.2064 50.6366 43.9613 51.1811C42.7645 51.5787 41.6789 52.2244 40.7853 53.0701C39.8918 53.9158 39.2134 54.9397 38.8008 56.0655C37.6741 54.6773 36.9833 53.0217 36.8061 51.2853C36.629 49.5488 36.9725 47.8005 37.798 46.2372C38.6235 44.6739 39.8982 43.3578 41.4785 42.4371C43.0588 41.5163 44.882 41.0276 46.7426 41.0259C48.6032 41.0242 50.4274 41.5096 52.0096 42.4274C53.5919 43.3452 54.8693 44.659 55.6981 46.2208C56.5269 47.7826 56.874 49.5303 56.7005 51.267C56.5269 53.0038 55.8395 54.6613 54.7158 56.0516ZM53.5929 57.2209C53.2508 55.7596 52.3861 54.4518 51.1421 53.5146C49.8982 52.5775 48.3498 52.0672 46.754 52.0686C45.1581 52.07 43.6108 52.5828 42.3687 53.5221C41.1265 54.4614 40.2643 55.7707 39.9251 57.2326C41.7786 58.8589 44.2229 59.7627 46.7615 59.7606C49.3 59.7584 51.7426 58.8504 53.5929 57.2209ZM46.7441 44.8467C46.1231 44.8467 45.5161 45.0193 44.9998 45.3427C44.4834 45.6662 44.081 46.1259 43.8433 46.6637C43.6057 47.2016 43.5435 47.7934 43.6646 48.3644C43.7857 48.9354 44.0848 49.4599 44.5238 49.8716C44.9629 50.2833 45.5224 50.5636 46.1314 50.6772C46.7405 50.7908 47.3717 50.7325 47.9455 50.5097C48.5192 50.2869 49.0095 49.9096 49.3545 49.4256C49.6995 48.9415 49.8837 48.3724 49.8837 47.7902C49.8837 47.4037 49.8025 47.0209 49.6448 46.6638C49.487 46.3066 49.2558 45.9821 48.9642 45.7088C48.6727 45.4355 48.3266 45.2186 47.9456 45.0707C47.5647 44.9228 47.1564 44.8467 46.7441 44.8467ZM34.1155 34.3811C32.1083 34.3866 30.185 35.1366 28.7657 36.4672C27.3464 37.7979 26.5465 39.601 26.5406 41.4828V44.712L35.08 50.3932L26.5406 56.0743V63.7349C26.5429 64.4425 26.8437 65.1204 27.3773 65.6208C27.911 66.1211 28.6342 66.4031 29.3889 66.4052H64.1161C64.8708 66.4031 65.5939 66.1211 66.1276 65.6208C66.6613 65.1204 66.9621 64.4425 66.9643 63.7349V41.4828C66.9584 39.601 66.1584 37.7978 64.7391 36.4672C63.3198 35.1366 61.3965 34.3866 59.3893 34.3811H34.1155ZM46.7524 39.6906C44.4946 39.6905 42.2874 40.3182 40.4101 41.4942C38.5327 42.6702 37.0695 44.3418 36.2054 46.2974C35.3414 48.253 35.1153 50.405 35.5557 52.4811C35.9962 54.5572 37.0835 56.4642 38.68 57.961C40.2765 59.4578 42.3106 60.4772 44.5251 60.8902C46.7396 61.3031 49.0349 61.0912 51.1209 60.2811C53.2069 59.4711 54.9898 58.0993 56.2442 56.3393C57.4986 54.5792 58.1682 52.51 58.1682 50.3932C58.168 47.5548 56.9652 44.8326 54.8244 42.8255C52.6835 40.8184 49.78 39.6908 46.7524 39.6906ZM27.5788 27.6135C27.761 27.6592 27.9164 27.7708 28.0109 27.9239C28.1053 28.0769 28.131 28.2589 28.0823 28.4297C28.0336 28.6005 27.9146 28.7462 27.7513 28.8347C27.588 28.9233 27.394 28.9474 27.2118 28.9017L24.9191 28.3258C24.8288 28.3032 24.7443 28.2642 24.6701 28.2109C24.596 28.1577 24.5338 28.0913 24.487 28.0155C24.3926 27.8624 24.367 27.6805 24.4156 27.5096C24.4643 27.3388 24.5834 27.1931 24.7467 27.1046C24.91 27.0161 25.104 26.992 25.2862 27.0377L27.5788 27.6135ZM27.2118 32.221C27.3024 32.1971 27.3972 32.1904 27.4906 32.2011C27.584 32.2119 27.6743 32.2399 27.7561 32.2836C27.8378 32.3273 27.9095 32.3858 27.967 32.4557C28.0245 32.5256 28.0666 32.6055 28.0909 32.6908C28.1152 32.776 28.1212 32.865 28.1086 32.9524C28.0959 33.0399 28.0649 33.1241 28.0173 33.2002C27.9696 33.2763 27.9063 33.3428 27.8311 33.3958C27.7558 33.4489 27.6701 33.4873 27.5788 33.509L25.2862 34.085C25.104 34.1307 24.91 34.1066 24.7467 34.0181C24.5834 33.9296 24.4643 33.7839 24.4156 33.6131C24.367 33.4422 24.3926 33.2603 24.487 33.1072C24.5815 32.9541 24.7369 32.8425 24.9191 32.7969L27.2118 32.221ZM30.356 23.7956C30.4857 23.9215 30.5574 24.0902 30.5558 24.2652C30.5542 24.4402 30.4793 24.6077 30.3473 24.7314C30.2153 24.8552 30.0367 24.9254 29.85 24.9269C29.6633 24.9285 29.4834 24.8612 29.3491 24.7396L27.6708 23.1661C27.6028 23.1045 27.5485 23.0309 27.5112 22.9494C27.4739 22.868 27.4543 22.7804 27.4534 22.6917C27.4526 22.6031 27.4706 22.5152 27.5064 22.4332C27.5422 22.3511 27.5951 22.2766 27.662 22.2139C27.7288 22.1512 27.8083 22.1017 27.8958 22.0681C27.9833 22.0345 28.0771 22.0176 28.1717 22.0184C28.2662 22.0192 28.3596 22.0376 28.4465 22.0726C28.5334 22.1076 28.612 22.1584 28.6776 22.2222L30.356 23.7956Z" fill="#56707A"/>
</svg>
