<svg width="89" height="89" viewBox="0 0 89 89" fill="none" xmlns="http://www.w3.org/2000/svg">
<rect width="89" height="89" rx="44.5" fill="#E7D5EC"/>
<path d="M71.702 47.0668C69.6517 46.5501 67.6645 45.8162 65.7754 44.8783C65.192 44.5918 64.6554 44.3168 64.1654 44.0533C63.197 43.5262 62.427 43.0564 61.9254 42.7355C61.8968 42.7158 61.8653 42.7003 61.832 42.6897C61.4622 42.478 61.0402 42.3703 60.6122 42.3784C60.1841 42.3864 59.7666 42.51 59.4054 42.7355C56.3951 44.6689 53.0967 46.1302 49.6287 47.0668C49.1182 47.1886 48.6638 47.4748 48.3382 47.8798C48.0126 48.2848 47.8344 48.7852 47.832 49.3012V51.2605C47.8308 54.0903 48.5416 56.8764 49.9013 59.3712C51.2609 61.866 53.2272 63.9922 55.6254 65.5605L56.7104 66.271L59.3704 68.0126C59.5812 68.149 59.8139 68.2497 60.0587 68.3105H60.0704C60.2617 68.3753 60.4631 68.4063 60.6654 68.4022C61.1263 68.3983 61.5763 68.263 61.9604 68.0126L65.7054 65.5605C68.1035 63.9922 70.0698 61.866 71.4295 59.3712C72.7891 56.8764 73.4999 54.0903 73.4987 51.2605V49.3012C73.4964 48.7852 73.3182 48.2848 72.9925 47.8798C72.6669 47.4748 72.2126 47.1886 71.702 47.0668ZM64.9937 53.3345L60.327 57.9178C60.1059 58.1309 59.8085 58.2502 59.4987 58.2502C59.1889 58.2502 58.8915 58.1309 58.6704 57.9178L56.337 55.6262C56.1173 55.4104 55.9939 55.1178 55.9939 54.8126C55.9939 54.5075 56.1173 54.2149 56.337 53.9991C56.5567 53.7833 56.8547 53.6621 57.1654 53.6621C57.4761 53.6621 57.774 53.7833 57.9937 53.9991L59.4987 55.4887L63.337 51.7074C63.4458 51.6006 63.5749 51.5158 63.7171 51.458C63.8592 51.4002 64.0115 51.3704 64.1654 51.3704C64.3192 51.3704 64.4715 51.4002 64.6137 51.458C64.7558 51.5158 64.8849 51.6006 64.9937 51.7074C65.1025 51.8143 65.1888 51.9411 65.2476 52.0807C65.3065 52.2203 65.3368 52.3699 65.3368 52.521C65.3368 52.6721 65.3065 52.8217 65.2476 52.9612C65.1888 53.1008 65.1025 53.2277 64.9937 53.3345Z" fill="#680D81"/>
<path d="M62.51 32.171L52.535 22.1564C52.177 21.8006 51.773 21.4924 51.3333 21.2397V29.6043C51.3361 30.5152 51.7057 31.3879 52.3615 32.032C53.0173 32.6761 53.9059 33.0391 54.8333 33.0418H63.2217C63.0112 32.7314 62.773 32.44 62.51 32.171ZM64.0967 35.3335H54.8333C53.2862 35.3335 51.8025 34.7299 50.7085 33.6554C49.6146 32.581 49 31.1238 49 29.6043V20.4835C48.7917 20.4511 48.5809 20.4358 48.37 20.4376H30.3333C28.7862 20.4376 27.3025 21.0413 26.2085 22.1157C25.1146 23.1901 24.5 24.6473 24.5 26.1668V62.8335C24.5 64.353 25.1146 65.8102 26.2085 66.8846C27.3025 67.959 28.7862 68.5626 30.3333 68.5626H56.0117L54.3317 67.4627C51.6133 65.6868 49.3844 63.2781 47.8435 60.4512C46.3026 57.6244 45.4975 54.4671 45.5 51.2606V49.3012C45.5004 48.5926 45.6682 47.8937 45.9901 47.2594C46.3119 46.6252 46.7791 46.0729 47.355 45.646H32.6667C32.3572 45.646 32.0605 45.5253 31.8417 45.3104C31.6229 45.0955 31.5 44.804 31.5 44.5001C31.5 44.1963 31.6229 43.9048 31.8417 43.6899C32.0605 43.475 32.3572 43.3543 32.6667 43.3543H53.3633C55.0153 42.6227 56.6102 41.7724 58.135 40.8106C58.819 40.3837 59.6036 40.1374 60.4129 40.0952C61.2222 40.0531 62.0288 40.2166 62.755 40.5699L62.8367 40.6043L63.1867 40.8106C63.4317 40.971 63.7583 41.1658 64.1667 41.4064V36.1814C64.167 35.8974 64.1436 35.6138 64.0967 35.3335ZM45.5 58.2501C45.5 58.554 45.3771 58.8455 45.1583 59.0604C44.9395 59.2753 44.6428 59.396 44.3333 59.396H32.6667C32.3572 59.396 32.0605 59.2753 31.8417 59.0604C31.6229 58.8455 31.5 58.554 31.5 58.2501C31.5 57.9463 31.6229 57.6548 31.8417 57.4399C32.0605 57.225 32.3572 57.1043 32.6667 57.1043H44.3333C44.6428 57.1043 44.9395 57.225 45.1583 57.4399C45.3771 57.6548 45.5 57.9463 45.5 58.2501ZM32.6667 50.2293H42C42.3094 50.2293 42.6062 50.35 42.825 50.5649C43.0438 50.7798 43.1667 51.0713 43.1667 51.3751C43.1667 51.679 43.0438 51.9705 42.825 52.1854C42.6062 52.4003 42.3094 52.521 42 52.521H32.6667C32.3572 52.521 32.0605 52.4003 31.8417 52.1854C31.6229 51.9705 31.5 51.679 31.5 51.3751C31.5 51.0713 31.6229 50.7798 31.8417 50.5649C32.0605 50.35 32.3572 50.2293 32.6667 50.2293ZM32.6667 29.6043H42C42.3094 29.6043 42.6062 29.725 42.825 29.9399C43.0438 30.1548 43.1667 30.4463 43.1667 30.7501C43.1667 31.054 43.0438 31.3455 42.825 31.5604C42.6062 31.7753 42.3094 31.896 42 31.896H32.6667C32.3572 31.896 32.0605 31.7753 31.8417 31.5604C31.6229 31.3455 31.5 31.054 31.5 30.7501C31.5 30.4463 31.6229 30.1548 31.8417 29.9399C32.0605 29.725 32.3572 29.6043 32.6667 29.6043ZM49 38.771H32.6667C32.3572 38.771 32.0605 38.6503 31.8417 38.4354C31.6229 38.2205 31.5 37.929 31.5 37.6251C31.5 37.3213 31.6229 37.0298 31.8417 36.8149C32.0605 36.6 32.3572 36.4793 32.6667 36.4793H49C49.3094 36.4793 49.6062 36.6 49.825 36.8149C50.0438 37.0298 50.1667 37.3213 50.1667 37.6251C50.1667 37.929 50.0438 38.2205 49.825 38.4354C49.6062 38.6503 49.3094 38.771 49 38.771Z" fill="#680D81"/>
</svg>
