<svg width="89" height="89" viewBox="0 0 89 89" fill="none" xmlns="http://www.w3.org/2000/svg">
<rect width="89" height="89" rx="44.5" fill="#D0F3CD"/>
<path fill-rule="evenodd" clip-rule="evenodd" d="M55.7728 69.9194C45.6468 73.1613 34.9505 72.4875 25.9073 68.7822L25.2394 70.6334C25.0934 71.0381 24.5126 71.1714 24.1536 70.8824C20.7111 68.1107 16.3589 62.8041 16.0015 58.0735C15.969 57.6435 16.4716 57.3383 16.9287 57.5104C20.0161 58.6721 24.3163 59.1719 28.4618 59.2324C28.5651 59.2335 28.6666 59.2555 28.7582 59.2967C28.8498 59.3378 28.929 59.3969 28.9895 59.4692C29.05 59.5415 29.0901 59.625 29.1065 59.7131C29.1229 59.8012 29.1153 59.8914 29.0842 59.9765L28.2171 62.3797C37.7802 66.5161 49.9244 66.7393 60.2189 63.4435C65.0174 61.9073 69.2868 59.7325 72.9049 57.1122C73.4952 56.6846 74.3169 57.3373 73.874 57.8817C69.5439 63.2051 63.367 67.4882 55.7728 69.9194ZM47.2946 38.8797V58.178L66.228 48.5482V29.2498L60.8763 31.9718L60.8723 39.8859C60.8724 40.0453 60.8241 40.202 60.7324 40.3403C60.6407 40.4787 60.5087 40.5939 60.3495 40.6745L54.2431 43.7803C53.5489 44.1327 52.6504 43.7043 52.6504 42.9916V36.1556L47.2946 38.8797ZM40.8432 20.7412L46.2328 18L65.2041 27.6492L59.8145 30.3904L40.8432 20.7412ZM34.7367 23.8471L38.7577 21.8019L57.729 31.4511L53.7081 33.4963L34.7367 23.8471ZM46.2328 37.2983L27.2615 27.6492L32.6511 24.9079L51.6226 34.5571L46.2328 37.2983ZM54.7657 35.0797L58.7529 33.0519V39.3652L54.7659 41.393L54.7657 35.0797ZM45.171 38.8797L26.2377 29.2498V48.5482L45.171 58.178V38.8797Z" fill="#0E7506"/>
</svg>
