<svg width="89" height="89" viewBox="0 0 89 89" fill="none" xmlns="http://www.w3.org/2000/svg">
<rect width="89" height="89" rx="44.5" fill="#CFC8F7"/>
<path d="M70.7778 28.9375C70.6293 28.7634 70.4448 28.6236 70.237 28.5277C70.0292 28.4318 69.8031 28.3821 69.5742 28.3821H33.0415L32.7867 26.4342C32.5516 24.6408 31.6796 23.0016 30.3313 21.8186C28.9831 20.6359 27.2447 19.9844 25.4363 19.9844H20.4258C19.5521 19.9844 18.8438 20.6927 18.8438 21.5664C18.8438 22.4401 19.5521 23.1484 20.4258 23.1484H25.4363C27.5968 23.1484 29.3688 24.7032 29.6494 26.8449L33.0163 52.5856L32.9128 52.5946C30.115 52.8396 28.0211 55.2278 28.1458 58.0293C28.2663 60.833 30.558 63.0263 33.3649 63.0263H33.3731L35.0174 63.0236C34.7702 63.6299 34.6433 64.2784 34.6436 64.933C34.6436 67.7357 36.9224 70.0158 39.7234 70.0158C42.5244 70.0158 44.8061 67.7357 44.8061 64.933C44.8065 64.2728 44.6774 63.619 44.4261 63.0085L54.5688 62.9921C54.3218 63.5979 54.195 64.246 54.1953 64.9002C54.1953 67.703 56.4754 69.9831 59.278 69.9831C62.0807 69.9831 64.3578 67.703 64.3578 64.9002C64.3578 62.0975 62.0791 59.8204 59.278 59.8204H59.2755L33.3681 59.8622H33.3648C32.8334 59.8636 32.3222 59.6591 31.9384 59.2915C31.5546 58.924 31.3282 58.4221 31.3067 57.8911C31.2574 56.7853 32.0841 55.8433 33.1873 55.7467L62.7596 53.1817C65.6141 52.9351 67.8367 50.8681 68.2902 48.0374L71.1363 30.2136C71.1724 29.9876 71.159 29.7565 71.0971 29.5361C71.0352 29.3158 70.9262 29.1115 70.7777 28.9374L70.7778 28.9375ZM39.7234 66.8518C38.667 66.8518 37.8077 65.9911 37.8077 64.9332C37.8077 63.8752 38.667 63.0173 39.7234 63.0173C40.7798 63.0173 41.6421 63.8767 41.6421 64.9332C41.6421 65.9896 40.7814 66.8518 39.7234 66.8518ZM61.1939 64.9002C61.1939 65.9583 60.3345 66.819 59.2781 66.819C58.2218 66.819 57.3595 65.9583 57.3595 64.9002C57.3595 63.8422 58.2202 62.9845 59.278 62.9845H59.2783C60.3345 62.9845 61.1939 63.844 61.1939 64.9002ZM42.1644 47.641C42.1141 47.6458 42.0641 47.6481 42.0145 47.6481C41.2074 47.6481 40.5182 47.0335 40.4412 46.2139L39.4488 35.6518C39.3671 34.7819 40.0059 34.0105 40.8759 33.9287C41.7447 33.8471 42.5172 34.4859 42.599 35.3558L43.5915 45.918C43.6731 46.7879 43.0343 47.5593 42.1644 47.641ZM52.2711 46.066C52.2711 46.9397 51.5628 47.648 50.6891 47.648C49.8154 47.648 49.1071 46.9397 49.1071 46.066V35.5038C49.1071 34.6301 49.8154 33.9218 50.6891 33.9218C51.5628 33.9218 52.2711 34.6301 52.2711 35.5038V46.066ZM61.9293 35.6523L60.9339 46.2145C60.8567 47.0338 60.1675 47.6481 59.3607 47.6481C59.311 47.6481 59.261 47.6458 59.2104 47.641C58.3405 47.5591 57.7018 46.7875 57.7839 45.9176L58.7793 35.3554C58.8611 34.4855 59.6331 33.8459 60.5027 33.9288C61.3727 34.0108 62.0114 34.7824 61.9293 35.6523Z" fill="#695FA1"/>
</svg>
