<svg width="89" height="89" viewBox="0 0 89 89" fill="none" xmlns="http://www.w3.org/2000/svg">
<rect width="89" height="89" rx="44.5" fill="#F1DAFC"/>
<path fill-rule="evenodd" clip-rule="evenodd" d="M20.7062 28.6668H28.8637V32.7659C28.8637 33.4803 29.4896 34.0595 30.2616 34.0595C31.0337 34.0595 31.6596 33.4803 31.6596 32.7659V28.6668H46.3012V32.7659C46.3012 33.4803 46.9271 34.0595 47.6992 34.0595C48.4712 34.0595 49.0971 33.4803 49.0971 32.7659V28.6668H57.2545C57.6906 28.6659 58.1111 28.8162 58.4333 29.0882C58.7554 29.3601 58.9557 29.7339 58.9946 30.1358L60.3097 43.3756C59.6809 43.3151 59.0492 43.2847 58.4171 43.2847C48.4273 43.2847 40.3289 50.7787 40.3289 60.023C40.3289 62.2966 40.8198 64.464 41.7071 66.4403H19.1111C18.1138 66.4403 17.2553 66.0898 16.5832 65.4079C15.9109 64.7261 15.6123 63.9029 15.7035 62.9838L18.9661 30.1358C19.005 29.7339 19.2053 29.3601 19.5274 29.0882C19.8495 28.8162 20.2701 28.6659 20.7062 28.6668ZM28.8637 28.4538V23.8421C28.8637 21.2663 30.0014 18.9256 31.8343 17.2294C33.6673 15.5333 36.1968 14.4805 38.9803 14.4805C41.7638 14.4805 44.2933 15.5333 46.1262 17.2294C47.9592 18.9256 49.0969 21.2664 49.0969 23.8421V28.4538H46.3011V23.8421C46.3011 21.9805 45.477 20.287 44.1495 19.0587C42.8219 17.8302 40.9921 17.0676 38.9803 17.0676C36.9686 17.0676 35.1386 17.8302 33.8111 19.0587C32.4835 20.287 31.6595 21.9804 31.6595 23.8421V28.4538H28.8637ZM58.4169 46.1909C50.1617 46.1909 43.4694 52.3838 43.4694 60.023C43.4694 67.6622 50.1617 73.855 58.4169 73.855C66.6722 73.855 73.3645 67.6622 73.3645 60.023C73.3645 52.3838 66.6722 46.1909 58.4169 46.1909ZM51.1105 60.8418L55.5825 64.6423C56.2092 65.1759 57.1791 65.1475 57.7684 64.5852L65.7481 57.5153C66.3714 56.9604 66.3906 56.0429 65.791 55.4661C65.1914 54.8893 64.1999 54.8715 63.5766 55.4264L56.6222 61.588L53.233 58.7077C52.5961 58.1654 51.6045 58.2035 51.0185 58.7928C50.4324 59.382 50.4737 60.2996 51.1105 60.8418Z" fill="#82405F"/>
</svg>
